<?xml version="1.0" encoding="UTF-8"?>
<svg xmlns="http://www.w3.org/2000/svg" xmlns:xlink="http://www.w3.org/1999/xlink" viewBox="0 0 500 500" width="500px" height="500px">
<g id="surface132048775">
<path style=" stroke:none;fill-rule:nonzero;fill:rgb(100%,100%,100%);fill-opacity:1;" d="M 150 40 C 147.34375 40 144.804688 41.054688 142.929688 42.929688 C 141.054688 44.804688 140 47.34375 140 50 L 140.078125 219.765625 C 140.078125 224.53125 143.4375 228.632812 148.125 229.570312 C 152.773438 230.507812 157.460938 228.007812 159.335938 223.632812 C 178.085938 178.90625 221.523438 150 270 150 C 336.171875 150 390 203.828125 390 270 C 390 336.171875 336.171875 390 270 390 C 244.257812 390 219.960938 381.757812 200 367.34375 L 200 270 C 200 231.40625 231.40625 200 270 200 C 308.59375 200 340 231.40625 340 270 C 340 308.59375 308.59375 340 270 340 C 261.328125 340 252.734375 338.359375 244.53125 335.15625 C 239.375 333.125 233.554688 335.664062 231.5625 340.78125 C 229.53125 345.9375 232.070312 351.71875 237.1875 353.75 C 247.773438 357.890625 258.828125 360 270 360 C 319.609375 360 360 319.609375 360 270 C 360 220.390625 319.609375 180 270 180 C 220.390625 180 180 220.390625 180 270 L 180 349.179688 C 171.523438 339.53125 164.453125 328.4375 159.335938 316.09375 C 157.1875 311.015625 151.328125 308.59375 146.25 310.742188 C 141.132812 312.851562 138.75 318.710938 140.859375 323.789062 C 162.695312 376.171875 213.398438 410 270 410 C 347.1875 410 410 347.1875 410 270 C 410 192.8125 347.1875 130 270 130 C 226.328125 130 186.171875 150.078125 160.039062 183.242188 L 160 60 L 360 60 C 365.507812 60 370 55.507812 370 50 C 370 44.492188 365.507812 40 360 40 Z M 270 80 C 248.242188 80 226.914062 83.671875 206.5625 90.859375 C 201.367188 92.695312 198.632812 98.398438 200.46875 103.59375 C 202.304688 108.828125 208.046875 111.523438 213.242188 109.6875 C 231.40625 103.28125 250.507812 100 270 100 C 316.796875 100 360.429688 118.59375 392.8125 152.421875 C 394.765625 154.492188 397.382812 155.507812 400 155.507812 C 402.5 155.507812 405 154.609375 406.914062 152.734375 C 410.898438 148.90625 411.054688 142.578125 407.226562 138.59375 C 371.054688 100.820312 322.304688 80 270 80 Z M 250 240 C 247.460938 240 244.882812 240.976562 242.929688 242.929688 C 239.023438 246.835938 239.023438 253.164062 242.929688 257.070312 L 255.859375 270 L 242.929688 282.929688 C 239.023438 286.835938 239.023438 293.164062 242.929688 297.070312 C 244.882812 299.023438 247.421875 300 250 300 C 252.578125 300 255.117188 299.023438 257.070312 297.070312 L 270 284.140625 L 282.929688 297.070312 C 284.882812 299.023438 287.421875 300 290 300 C 292.578125 300 295.117188 299.023438 297.070312 297.070312 C 300.976562 293.164062 300.976562 286.835938 297.070312 282.929688 L 284.140625 270 L 297.070312 257.070312 C 300.976562 253.164062 300.976562 246.835938 297.070312 242.929688 C 293.164062 239.023438 286.835938 239.023438 282.929688 242.929688 L 270 255.859375 L 257.070312 242.929688 C 255.117188 240.976562 252.539062 240 250 240 Z M 89.765625 265.625 C 84.257812 265.78125 79.921875 270.429688 80.078125 275.9375 C 83.28125 379.140625 166.679688 460 270 460 C 327.617188 460 381.445312 434.21875 417.773438 389.335938 C 421.25 385 420.585938 378.710938 416.289062 375.234375 C 411.992188 371.757812 405.703125 372.460938 402.226562 376.71875 C 369.726562 416.953125 321.523438 440 270 440 C 177.539062 440 102.929688 367.65625 100.078125 275.3125 C 99.921875 269.804688 95.3125 265.273438 89.765625 265.625 Z M 89.765625 265.625 "/>
</g>
</svg>
