<?xml version="1.0" encoding="UTF-8"?>
<svg xmlns="http://www.w3.org/2000/svg" xmlns:xlink="http://www.w3.org/1999/xlink" viewBox="0 0 500 500" width="500px" height="500px">
<g id="surface164773441">
<path style=" stroke:none;fill-rule:nonzero;fill:rgb(100%,100%,100%);fill-opacity:1;" d="M 60 40 C 49.070312 40 40 49.070312 40 60 L 40 440 C 40 450.929688 49.070312 460 60 460 L 440 460 C 450.929688 460 460 450.929688 460 440 L 460 60 C 460 49.070312 450.929688 40 440 40 Z M 60 60 L 440 60 L 440 440 L 60 440 Z M 195.859375 140 C 181.460938 140 169.921875 141.601562 160 144.160156 L 160 360 L 184.648438 360 L 184.648438 268.300781 C 188.167969 268.609375 191.367188 268.613281 195.527344 268.613281 C 214.726562 268.613281 234.886719 260.628906 246.40625 244.628906 C 254.734375 233.75 259.511719 220.308594 259.511719 200.46875 C 259.511719 181.597656 254.078125 165.902344 243.847656 155.664062 C 232.648438 144.785156 215.6875 140 195.859375 140 Z M 199.765625 156.40625 C 227.277344 156.40625 236.230469 176.222656 236.230469 198.300781 C 236.230469 228.699219 219.90625 244.707031 195.917969 244.707031 C 191.757812 244.707031 188.875 244.390625 185.996094 244.082031 L 185.996094 158.007812 C 189.195312 157.039062 194.003906 156.40625 199.765625 156.40625 Z M 344.882812 197.5 C 330.511719 197.5 321.300781 204.019531 316.191406 218.75 L 314.941406 222.5 L 314.941406 200 L 290 200 L 290 360 L 314.941406 360 L 315.234375 267.5 C 315.234375 262.058594 315.550781 257.578125 316.191406 253.417969 C 318.742188 235.496094 329.242188 220.9375 344.882812 220.9375 C 346.8125 220.9375 348.398438 220.929688 350 221.25 L 350 197.8125 C 348.398438 197.492188 346.804688 197.5 344.882812 197.5 Z M 344.882812 197.5 "/>
</g>
</svg>
