<?xml version="1.0" encoding="UTF-8"?>
<svg xmlns="http://www.w3.org/2000/svg" xmlns:xlink="http://www.w3.org/1999/xlink" viewBox="0 0 500 500" width="500px" height="500px">
<g id="surface131809361">
<path style=" stroke:none;fill-rule:nonzero;fill:rgb(100%,100%,100%);fill-opacity:1;" d="M 249.609375 20 C 248.394531 19.964844 247.183594 20.148438 246.035156 20.546875 L 36.71875 93.398438 C 32.269531 94.945312 29.503906 99.386719 30.078125 104.0625 L 63.144531 375.292969 C 63.535156 378.503906 65.457031 381.328125 68.300781 382.871094 L 244.765625 478.789062 C 247.757812 480.414062 251.371094 480.410156 254.355469 478.769531 L 431.738281 381.542969 C 434.5625 379.996094 436.464844 377.179688 436.855469 373.984375 L 469.921875 102.773438 C 470.5 98.074219 467.703125 93.617188 463.222656 92.089844 L 252.539062 20.527344 C 251.59375 20.207031 250.605469 20.027344 249.609375 20 Z M 249.375 40.585938 L 449.082031 108.417969 L 417.617188 366.484375 L 249.53125 458.613281 L 82.382812 367.753906 L 50.898438 109.648438 Z M 250.351562 60 C 246.335938 59.863281 242.628906 62.136719 240.9375 65.78125 L 110.9375 345.78125 C 109.496094 348.878906 109.738281 352.496094 111.570312 355.375 C 113.40625 358.253906 116.585938 360 120 360 L 164.375 360 C 168.261719 360 171.796875 357.742188 173.4375 354.21875 L 198.574219 300.078125 L 301.425781 300.078125 L 326.5625 354.21875 C 328.203125 357.742188 331.738281 360 335.625 360 L 380 360 C 383.414062 360 386.59375 358.253906 388.429688 355.375 C 390.261719 352.496094 390.503906 348.878906 389.0625 345.78125 L 259.0625 65.78125 C 257.476562 62.371094 254.113281 60.136719 250.351562 60 Z M 250 93.730469 L 364.335938 340 L 342.011719 340 L 316.875 285.859375 C 315.234375 282.335938 311.699219 280.078125 307.8125 280.078125 L 192.1875 280.078125 C 188.300781 280.078125 184.765625 282.335938 183.125 285.859375 L 157.96875 340 L 135.664062 340 Z M 250.390625 155 C 246.347656 154.84375 242.605469 157.140625 240.917969 160.820312 L 201.660156 245.9375 C 200.238281 249.035156 200.488281 252.640625 202.324219 255.511719 C 204.164062 258.378906 207.335938 260.117188 210.742188 260.117188 L 289.257812 260.117188 C 292.664062 260.117188 295.835938 258.378906 297.675781 255.511719 C 299.511719 252.640625 299.761719 249.03125 298.339844 245.9375 L 259.082031 160.820312 C 257.511719 157.398438 254.152344 155.148438 250.390625 155 Z M 250 188.867188 L 273.632812 240.117188 L 226.367188 240.117188 Z M 250 188.867188 "/>
</g>
</svg>
