<?xml version="1.0" encoding="UTF-8"?>
<svg xmlns="http://www.w3.org/2000/svg" xmlns:xlink="http://www.w3.org/1999/xlink" viewBox="0 0 500 500" width="500px" height="500px">
<g id="surface131810875">
<path style=" stroke:none;fill-rule:nonzero;fill:rgb(100%,100%,100%);fill-opacity:1;" d="M 110 140 C 49.53125 140 0 189.53125 0 250 C 0 310.46875 49.53125 360 110 360 C 154.179688 360 191.25 333.125 217.1875 307.1875 C 232.1875 292.1875 243.007812 277.578125 250 267.5 C 256.992188 277.578125 267.8125 292.1875 282.8125 307.1875 C 308.75 333.125 345.820312 360 390 360 C 450.46875 360 500 310.46875 500 250 C 500 189.53125 450.46875 140 390 140 C 345.820312 140 308.75 166.875 282.8125 192.8125 C 267.929688 207.695312 256.992188 222.109375 250 232.1875 C 243.046875 222.109375 232.5 207.65625 217.8125 192.8125 C 192.109375 166.835938 155.078125 140 110 140 Z M 110 160 C 146.953125 160 179.960938 183.164062 203.75 207.1875 C 223.59375 227.226562 234.375 243.945312 238.125 250 C 234.21875 256.132812 222.851562 272.773438 202.8125 292.8125 C 178.75 316.875 145.820312 340 110 340 C 60.46875 340 20 299.53125 20 250 C 20 200.46875 60.46875 160 110 160 Z M 390 160 C 439.53125 160 480 200.46875 480 250 C 480 299.53125 439.53125 340 390 340 C 354.179688 340 321.25 316.875 297.1875 292.8125 C 277.148438 272.773438 265.78125 256.132812 261.875 250 C 265.78125 243.867188 277.148438 227.226562 297.1875 207.1875 C 321.25 183.125 354.179688 160 390 160 Z M 380 210 L 380 240 L 350 240 L 350 260 L 380 260 L 380 290 L 400 290 L 400 260 L 430 260 L 430 240 L 400 240 L 400 210 Z M 70 240 L 70 260 L 150 260 L 150 240 Z M 70 240 "/>
</g>
</svg>
