<svg width="500" height="500" viewBox="0 0 500 500" fill="none" xmlns="http://www.w3.org/2000/svg">
<path d="M21.6143 358.754L22.7538 357.942C24.8302 356.112 27.0332 354.429 29.3466 352.908C34.051 349.826 39.1231 347.344 44.4449 345.518C49.1198 343.897 53.9078 342.622 58.7701 341.701V45.7074C21.0852 51.473 21.3294 89.2335 21.5329 124.395C22.5096 173.119 19.3353 301.504 21.5329 358.754H21.6143ZM78.5892 350.39C78.4328 352.557 77.5922 354.618 76.1881 356.278C74.6246 358.088 72.4555 359.271 70.0836 359.607C64.5783 360.387 59.1376 361.567 53.8051 363.139C49.07 364.512 44.5599 366.563 40.416 369.23C36.4159 371.916 32.8946 375.251 29.9977 379.096C26.4866 383.831 23.6133 389.004 21.4515 394.485C21.0621 401.942 21.6228 409.418 23.1201 416.735C24.3969 423.059 26.929 429.064 30.5675 434.397C34.3301 439.632 39.2443 443.938 44.9333 446.984C52.1345 450.802 59.9397 453.356 68.0081 454.536H479.855C479.855 316.919 479.855 239.762 479.855 102.145H78.7927V350.39H78.5892ZM78.5892 82.4122H485.553C487.438 82.4226 489.303 82.7948 491.047 83.5085C494.594 84.9907 497.416 87.8054 498.901 91.3448C499.621 93.0977 499.994 94.9727 500 96.8668V460.626C499.99 462.507 499.616 464.368 498.901 466.108C498.157 467.845 497.094 469.429 495.768 470.777C494.416 472.101 492.829 473.161 491.087 473.904C489.349 474.636 487.48 475.009 485.593 475H67.4791C57.234 474.467 47.2618 471.517 38.3812 466.392C28.94 461.492 20.7103 454.558 14.2889 446.091C9.19757 438.74 5.60255 430.462 3.70789 421.729C1.71191 412.12 1.00032 402.29 1.59168 392.495C1.59168 305.24 -1.9896 210.676 1.59168 124.517C1.59168 101.374 1.3068 77.2963 9.40538 58.5784C17.504 39.8606 34.393 25.6496 67.7233 25H68.7814C71.4365 25 73.983 26.0523 75.8604 27.9255C77.7379 29.7987 78.7927 32.3392 78.7927 34.9883V82.2904L78.5892 82.4122Z" fill="white"/>
<path d="M257.809 148C255.149 148.002 252.879 149.928 252.448 152.554L247.161 184.918C240.805 186.767 234.743 189.262 229.03 192.37L202.321 173.295C200.161 171.754 197.204 171.996 195.325 173.868L174.178 194.992C172.312 196.858 172.057 199.794 173.573 201.955L192.363 228.832C189.208 234.577 186.656 240.674 184.762 247.089L152.533 252.45C149.915 252.891 148 255.157 148 257.81V287.701C147.996 290.338 149.883 292.599 152.48 293.062L184.73 298.773C186.616 305.178 189.149 311.277 192.31 317.03L173.287 343.642C171.745 345.801 171.987 348.758 173.86 350.637L194.996 371.781C196.858 373.643 199.788 373.904 201.949 372.397L228.881 353.545C234.611 356.67 240.688 359.184 247.066 361.05L252.448 393.457C252.883 396.079 255.151 398 257.809 398H287.703C290.344 398.004 292.605 396.111 293.064 393.51L298.828 360.976C305.18 359.082 311.227 356.53 316.928 353.386L344.04 372.408C346.202 373.923 349.138 373.669 351.004 371.803L372.14 350.647C374.021 348.762 374.259 345.792 372.703 343.631L353.372 316.797C356.463 311.124 358.953 305.114 360.803 298.805L393.51 293.073C396.11 292.614 398.004 290.353 398 287.712V257.821C397.998 255.161 396.072 252.891 393.446 252.46L360.792 247.121C358.93 240.82 356.433 234.819 353.34 229.15L372.406 201.987C373.921 199.826 373.667 196.89 371.8 195.024L350.654 173.89C348.769 172.009 345.798 171.771 343.637 173.327L316.875 192.572C311.172 189.438 305.121 186.901 298.754 185.024L293.064 152.501C292.609 149.896 290.346 147.998 287.703 148H257.809ZM262.437 158.87H283.138L288.552 189.769C288.919 191.886 290.501 193.588 292.586 194.111C300.535 196.091 308 199.231 314.815 203.356C316.677 204.484 319.034 204.392 320.803 203.123L346.238 184.844L360.877 199.482L342.766 225.286C341.531 227.044 341.448 229.367 342.554 231.209C346.639 238.007 349.737 245.427 351.716 253.331C352.242 255.435 353.97 257.025 356.11 257.375L387.13 262.449V283.148L356.047 288.604C353.928 288.98 352.229 290.57 351.716 292.659C349.76 300.554 346.66 307.972 342.575 314.769C341.454 316.631 341.55 318.981 342.82 320.745L361.185 346.232L346.546 360.88L320.781 342.803C319.013 341.565 316.679 341.489 314.837 342.612C308.055 346.737 300.582 349.892 292.66 351.9C290.586 352.422 289.011 354.114 288.637 356.22L283.149 387.13H262.416L257.299 356.358C256.943 354.218 255.35 352.496 253.244 351.974C245.291 350.015 237.792 346.879 230.93 342.761C229.089 341.659 226.773 341.741 225.017 342.973L199.454 360.88L184.805 346.21L202.873 320.958C204.134 319.189 204.223 316.839 203.096 314.982C198.932 308.103 195.783 300.605 193.796 292.616C193.276 290.538 191.586 288.958 189.476 288.583L158.87 283.148V262.417L189.454 257.333C191.59 256.978 193.314 255.39 193.839 253.288C195.843 245.272 198.989 237.776 203.138 230.912C204.255 229.072 204.18 226.745 202.947 224.979L185.091 199.461L199.752 184.812L225.091 202.921C226.854 204.178 229.191 204.269 231.047 203.155C237.873 199.055 245.389 195.945 253.35 193.994C255.467 193.474 257.066 191.739 257.416 189.589L262.437 158.87ZM273 229.522C249.051 229.522 229.518 249.053 229.518 273C229.518 296.947 249.051 316.478 273 316.478C296.949 316.478 316.482 296.947 316.482 273C316.482 249.053 296.949 229.522 273 229.522ZM273 240.391C291.074 240.391 305.611 254.927 305.611 273C305.611 291.073 291.074 305.609 273 305.609C254.926 305.609 240.389 291.073 240.389 273C240.389 254.927 254.926 240.391 273 240.391Z" fill="white"/>
</svg>
