<?xml version="1.0" encoding="UTF-8"?>
<svg xmlns="http://www.w3.org/2000/svg" xmlns:xlink="http://www.w3.org/1999/xlink" viewBox="0 0 500 500" width="500px" height="500px">
<g id="surface126031388">
<path style=" stroke:none;fill-rule:nonzero;fill:rgb(100%,100%,100%);fill-opacity:1;" d="M 250 20 C 242.851562 20 235.742188 21.796875 229.335938 25.390625 L 60.898438 120.039062 C 48.085938 127.265625 40 140.742188 40 155.351562 L 40 344.648438 C 40 359.296875 48.085938 372.773438 60.898438 380 L 229.335938 474.609375 C 242.148438 481.835938 257.851562 481.835938 270.664062 474.609375 L 439.101562 380 C 451.953125 372.773438 460 359.257812 460 344.648438 L 460 155.351562 C 460 140.742188 451.914062 127.265625 439.101562 120.039062 L 270.664062 25.390625 C 264.257812 21.796875 257.148438 20 250 20 Z M 250 40 C 253.75 40 257.539062 40.9375 260.898438 42.8125 L 429.335938 137.460938 C 436.015625 141.25 440 148.046875 440 155.351562 L 440 344.648438 C 440 351.953125 436.015625 358.75 429.296875 362.539062 L 260.898438 457.1875 C 254.179688 460.9375 245.820312 460.9375 239.101562 457.1875 L 70.703125 362.539062 C 63.984375 358.75 60 351.992188 60 344.648438 L 60 155.351562 C 60 148.046875 63.984375 141.25 70.703125 137.460938 L 239.101562 42.8125 C 242.460938 40.9375 246.25 40 250 40 Z M 250 120 C 178.398438 120 120 178.398438 120 250 C 120 321.601562 178.398438 380 250 380 C 290.898438 380 328.867188 360.9375 353.398438 328.632812 L 360.234375 319.609375 L 299.6875 284.53125 L 294.21875 290.46875 C 282.929688 302.8125 266.914062 310 250 310 C 216.835938 310 190 283.164062 190 250 C 190 216.835938 216.835938 190 250 190 C 266.914062 190 282.929688 197.1875 294.21875 209.53125 L 299.6875 215.46875 L 360.234375 180.390625 L 353.398438 171.367188 C 328.867188 139.0625 290.898438 120 250 120 Z M 250 140 C 280.742188 140 308.867188 153.164062 329.453125 175.117188 L 302.03125 190.976562 C 287.578125 178.320312 269.609375 170 250 170 C 205.976562 170 170 205.976562 170 250 C 170 294.023438 205.976562 330 250 330 C 269.609375 330 287.578125 321.679688 302.03125 309.023438 L 329.453125 324.882812 C 308.867188 346.835938 280.742188 360 250 360 C 189.257812 360 140 310.742188 140 250 C 140 189.257812 189.257812 140 250 140 Z M 350 200 L 350 220 L 330 220 L 330 240 L 350 240 L 350 260 L 330 260 L 330 280 L 350 280 L 350 300 L 370 300 L 370 280 L 390 280 L 390 300 L 410 300 L 410 280 L 430 280 L 430 260 L 410 260 L 410 240 L 430 240 L 430 220 L 410 220 L 410 200 L 390 200 L 390 220 L 370 220 L 370 200 Z M 370 240 L 390 240 L 390 260 L 370 260 Z M 370 240 "/>
</g>
</svg>
