<?xml version="1.0" encoding="UTF-8"?>
<svg xmlns="http://www.w3.org/2000/svg" xmlns:xlink="http://www.w3.org/1999/xlink" viewBox="0 0 500 500" width="500px" height="500px">
<g id="surface132224687">
<path style=" stroke:none;fill-rule:evenodd;fill:rgb(100%,100%,100%);fill-opacity:1;" d="M 390 400 L 250 440 L 110 400 L 80 60 L 420 60 C 410 173.320312 400 286.679688 390 400 Z M 398.164062 80 L 101.835938 80 L 128.710938 384.53125 L 250 419.21875 L 371.289062 384.53125 Z M 168.007812 280 L 208.007812 280 L 208.984375 305 L 250 318.984375 L 291.015625 305 L 293.984375 260 L 206.015625 260 L 203.984375 220 L 296.015625 220 L 298.984375 180 L 161.015625 180 L 158.007812 140 L 341.015625 140 L 336.015625 220 L 328.984375 335 L 250 361.015625 L 171.015625 335 Z M 168.007812 280 "/>
</g>
</svg>
