<svg width="500" height="500" xmlns="http://www.w3.org/2000/svg">
 <g>
  <title>Layer 1</title>
  <line fill="none" stroke="#ffffff" x1="50" y1="10" x2="450" y2="10" id="svg_1" stroke-linejoin="undefined" stroke-linecap="undefined" stroke-width="10"/>
  <line fill="none" stroke="#ffffff" stroke-width="10" x1="449" y1="5" x2="449" y2="495" id="svg_3" stroke-linejoin="undefined" stroke-linecap="undefined"/>
  <line fill="none" stroke="#ffffff" stroke-width="10" x1="48" y1="5" x2="48" y2="195" id="svg_4" stroke-linejoin="undefined" stroke-linecap="undefined"/>
  <line fill="none" stroke="#ffffff" x1="50" y1="490" x2="450" y2="490" id="svg_8" stroke-linejoin="undefined" stroke-linecap="undefined" stroke-width="10"/>
  <ellipse fill="none" stroke-width="4" cx="144.25" cy="105.25" id="svg_12" rx="87.75" ry="87.75" stroke="#ffffff"/>
  <line fill="none" stroke="#ffffff" stroke-width="4" x1="239" y1="49" x2="239" y2="450" id="svg_31"/>
  <line fill="none" stroke="#ffffff" stroke-width="8" x1="101.5" y1="297" x2="185.18094" y2="297" id="svg_32"/>
  <line fill="none" stroke="#ffffff" stroke-width="4" x1="147" y1="331.5" x2="212.62202" y2="331.5" id="svg_33"/>
  <line fill="none" stroke="#ffffff" stroke-width="4" x1="66.5" y1="331.5" x2="132.12202" y2="331.5" id="svg_35"/>
  <line fill="none" stroke="#ffffff" stroke-width="4" x1="65.5" y1="359.5" x2="166.00124" y2="359.5" id="svg_36"/>
  <line fill="none" stroke="#ffffff" stroke-width="4" x1="183" y1="359" x2="211.50439" y2="359" id="svg_37"/>
  <line fill="none" stroke="#ffffff" stroke-width="4" x1="65" y1="382" x2="110.02499" y2="382" id="svg_38"/>
  <line fill="none" stroke="#ffffff" stroke-width="4" x1="126" y1="382.5" x2="212.03633" y2="382.5" id="svg_39"/>
  <path fill="none" stroke-width="4" d="m117.5,408c201.26377,113.31203 30.18957,6.41389 31.06462,53.44907c0.87506,47.03518 0.43753,-47.03518 -31.06462,-53.44907z" id="svg_41" stroke="#ffffff"/>
  <line fill="none" stroke="#ffffff" stroke-width="2" x1="274" y1="318" x2="424.5" y2="318.5" id="svg_42"/>
  <line fill="none" stroke="#ffffff" stroke-width="2" x1="273" y1="93.5" x2="423.5" y2="94" id="svg_43"/>
  <line fill="none" stroke="#ffffff" stroke-width="2" x1="272" y1="421.5" x2="422.5" y2="422" id="svg_44"/>
  <line fill="none" stroke="#ffffff" stroke-width="2" x1="273" y1="374" x2="423.5" y2="374.5" id="svg_45"/>
  <line fill="none" stroke="#ffffff" stroke-width="2" x1="275.5" y1="135.5" x2="426" y2="136" id="svg_46"/>
  <line fill="none" stroke="#ffffff" stroke-width="2" x1="274.5" y1="179" x2="425" y2="179.5" id="svg_47"/>
  <line fill="none" stroke="#ffffff" stroke-width="2" x1="274.5" y1="222" x2="425" y2="222.5" id="svg_48"/>
  <line fill="none" stroke="#ffffff" stroke-width="2" x1="273.5" y1="268.5" x2="424" y2="269" id="svg_49"/>
  <line fill="none" stroke="#ffffff" x1="72" y1="154.5" x2="10.5" y2="265" id="svg_51" stroke-width="4"/>
  <line fill="none" stroke="#ffffff" x1="131.5" y1="191" x2="117" y2="265" id="svg_52" stroke-width="4"/>
  <line fill="none" stroke-width="4" x1="12.5" y1="262.5" x2="90.5" y2="205.5" id="svg_55" stroke="#ffffff"/>
  <line fill="none" stroke-width="4" x1="117.5" y1="263.5" x2="89" y2="206.5" id="svg_56" stroke="#ffffff"/>
  <line fill="none" stroke-width="10" x1="48" y1="495" x2="48" y2="238.67206" id="svg_57" stroke-linejoin="undefined" stroke-linecap="undefined" stroke="#ffffff"/>
  <path stroke="#ffffff" id="svg_2" d="m217.87392,83.7832l-54.76129,0l-16.9041,-52.02371l-2.37355,7.27026l-14.55049,44.76343l-54.74633,-0.00997l44.28973,32.1826l-16.93401,52.05862l44.2997,-32.1826l44.30967,32.19756l-16.939,-52.07358l44.30967,-32.1826zm-65.81129,43.99053l-5.85909,-4.25345l-5.85909,4.25843l-19.45716,14.13162l7.42982,-22.85792l2.24391,-6.89128l-5.86906,-4.26342l-19.44719,-14.13162l31.29003,0l2.24391,-6.8863l7.42484,-22.85792l7.42484,22.84296l2.23892,6.8863l31.31995,0l-19.47711,14.14159l-5.87405,4.25843l2.23892,6.90126l7.44478,22.85792l-19.45716,-14.13661z" stroke-width="0" fill="#ffffff"/>
 </g>

</svg>