<svg width="500" height="500" viewBox="0 0 500 500" fill="none" xmlns="http://www.w3.org/2000/svg">
<path fill-rule="evenodd" clip-rule="evenodd" d="M291.57 386.03C291.002 385.439 290.32 384.97 289.566 384.649C288.812 384.328 288.001 384.163 287.182 384.163C286.363 384.163 285.552 384.328 284.798 384.649C284.044 384.97 283.362 385.439 282.794 386.03L276.049 392.741C274.218 391.618 272.318 390.613 270.36 389.731C268.391 388.826 266.369 388.038 264.306 387.372V376.878C264.306 375.26 263.664 373.708 262.521 372.564C261.378 371.42 259.828 370.777 258.211 370.777H245.168C243.565 370.829 242.043 371.495 240.916 372.638C239.79 373.781 239.145 375.313 239.114 376.919V386.599C236.992 387.127 234.903 387.779 232.857 388.552C230.881 389.33 228.955 390.226 227.087 391.236L219.651 383.874C219.132 383.311 218.504 382.859 217.806 382.544C217.108 382.23 216.354 382.059 215.588 382.044V382.044C214.778 382.042 213.976 382.203 213.229 382.518C212.482 382.832 211.806 383.293 211.241 383.874L201.733 392.782C201.131 393.344 200.651 394.024 200.322 394.78C199.994 395.535 199.824 396.351 199.823 397.175C199.826 398.004 199.996 398.825 200.324 399.587C200.653 400.349 201.132 401.037 201.733 401.608L208.437 408.319C207.271 410.133 206.252 412.037 205.39 414.014C204.485 415.986 203.698 418.009 203.033 420.074H192.55C190.94 420.085 189.401 420.733 188.266 421.876C187.132 423.019 186.496 424.565 186.496 426.176V439.11C186.497 440.728 187.14 442.279 188.283 443.422C189.34 444.556 190.799 445.228 192.347 445.293H201.895C202.422 447.417 203.073 449.509 203.846 451.557C204.626 453.566 205.507 455.534 206.487 457.454L199.173 464.776C198.607 465.293 198.152 465.92 197.838 466.62C197.523 467.32 197.355 468.076 197.344 468.843V468.843C197.342 469.66 197.502 470.47 197.816 471.224C198.13 471.978 198.591 472.662 199.173 473.236L208.274 482.347C209.48 483.448 211.052 484.058 212.683 484.058C214.314 484.058 215.886 483.448 217.092 482.347L223.796 475.514C225.613 476.661 227.515 477.667 229.484 478.524C231.468 479.429 233.503 480.217 235.579 480.883V491.214C235.568 492.015 235.717 492.81 236.017 493.552C236.317 494.295 236.762 494.97 237.326 495.538C237.89 496.106 238.561 496.556 239.301 496.861C240.04 497.167 240.833 497.321 241.633 497.315H254.554C256.164 497.305 257.704 496.657 258.838 495.514C259.972 494.371 260.609 492.825 260.609 491.214V481.981C262.731 481.454 264.82 480.802 266.866 480.029C268.898 479.256 270.929 478.361 272.92 477.385L280.234 484.706C280.75 485.277 281.376 485.737 282.074 486.058C282.772 486.38 283.529 486.557 284.297 486.577H284.541C285.308 486.552 286.063 486.373 286.761 486.052C287.459 485.731 288.085 485.273 288.604 484.706L298.234 476.083C299.36 474.89 299.987 473.311 299.987 471.67C299.987 470.029 299.36 468.45 298.234 467.257L291.408 460.546C292.582 458.737 293.601 456.832 294.455 454.851C295.353 452.877 296.14 450.853 296.812 448.791H307.214C308.835 448.774 310.383 448.116 311.521 446.96C312.094 446.4 312.548 445.729 312.856 444.988C313.163 444.247 313.317 443.451 313.308 442.649V429.714C313.298 428.096 312.654 426.546 311.514 425.397C310.375 424.249 308.831 423.594 307.214 423.572H297.706C297.178 421.515 296.527 419.491 295.755 417.512C295.025 415.495 294.142 413.537 293.114 411.655L300.428 404.211C300.994 403.692 301.451 403.065 301.772 402.366C302.093 401.668 302.272 400.912 302.297 400.144V400.144C302.292 399.324 302.124 398.514 301.803 397.76C301.482 397.005 301.015 396.323 300.428 395.751L291.326 386.64H291.57V386.03ZM243.868 427.274L225.421 434.229L243.868 441.225V457.495L215.223 441.225V427.274L243.868 411.004V427.274ZM284.5 427.274V441.225L255.855 457.495V441.225L274.302 434.229L255.977 427.274V411.004L284.622 427.274H284.5ZM203.764 255.627C200.886 265.163 196.861 274.315 191.778 282.879C191.347 283.46 190.826 283.968 190.234 284.384C192.306 301.02 249.313 322.293 252.726 344.379H69.2313C66.8909 344.461 64.5959 345.049 62.5035 346.102C60.4111 347.155 58.5706 348.647 57.1082 350.478C55.6457 352.309 54.5958 354.435 54.0303 356.71C53.4648 358.985 53.397 361.355 53.8317 363.659L71.7911 500H55.5383C40.4231 498.82 32.703 491.011 31.4434 477.466C32.2154 416.454 9.09575 342.874 73.1726 307.121C96.6173 293.983 157.119 289.55 183.529 272.222C187.296 264.324 190.5 256.168 193.119 247.818L191.006 245.784C176.053 231.06 166.017 209.177 163.132 175.946L157.728 170.455C156.897 169.738 156.228 168.852 155.765 167.856C155.303 166.86 155.058 165.777 155.046 164.679V151.704H171.299V161.425L176.825 166.957C178.132 168.274 178.913 170.024 179.019 171.878V171.878C181.254 202.465 189.787 222.071 202.505 234.639C215.223 247.207 231.597 252.658 250.654 255.586C269.217 253.207 286.284 244.158 298.681 230.124C310.871 215.847 318.428 196.039 320.744 171.797C320.899 170.302 321.493 168.887 322.451 167.729V167.729L327.448 161.587V151.053H343.701V163.662C343.82 165.602 343.211 167.516 341.995 169.031L336.631 175.702C333.909 202.059 325.336 223.901 311.317 240.171C309.26 242.589 307.062 244.885 304.735 247.045L303.069 248.387C304.261 250.041 305.48 251.831 306.726 253.756C311.033 260.061 315.95 267.26 320.5 272.873C347.399 289.631 406.64 294.146 429.841 307.08C488.758 339.986 467.264 419.871 471.53 477.426C470.27 490.97 462.55 498.78 447.435 499.959H431.182L449.101 363.618C449.536 361.315 449.468 358.944 448.902 356.669C448.337 354.394 447.287 352.269 445.825 350.438C444.362 348.607 442.522 347.114 440.429 346.061C438.337 345.008 436.042 344.421 433.701 344.338H257.48C263.087 303.664 312.577 303.664 313.796 284.709C307.459 277.154 301.583 269.221 296.202 260.955C295.024 259.247 293.927 257.579 292.83 256.034C291.367 257.091 289.864 258.108 288.36 259.125C277.147 265.424 264.853 269.563 252.116 271.327C251.23 271.491 250.321 271.491 249.435 271.327C235.843 269.686 222.627 265.753 210.347 259.695C208.112 258.393 205.918 257.01 203.764 255.627V255.627ZM215.954 23.2532C215.043 23.2843 214.133 23.1464 213.272 22.8465C189.34 33.5032 170.04 57.1351 164.798 95.9794C164.476 98.0842 163.343 99.9788 161.641 101.256C159.939 102.534 157.805 103.093 155.696 102.813C153.605 102.557 151.694 101.498 150.367 99.8587C149.04 98.2195 148.402 96.1286 148.586 94.027C154.721 48.5528 178.166 21.0161 206.852 8.32564C221.352 2.00158 237.143 -0.786502 252.929 0.190721C268.648 1.06623 284.011 5.22264 298.031 12.3931C327.57 27.7274 350.04 56.3623 351.665 94.4337C351.751 96.5912 350.978 98.6947 349.515 100.281C348.052 101.868 346.019 102.808 343.864 102.894C341.709 102.98 339.607 102.206 338.022 100.741C336.437 99.2769 335.499 97.242 335.412 95.0845C334.702 80.6727 330.143 66.7154 322.21 54.6678C314.278 42.6202 303.262 32.9234 290.311 26.5885L287.06 25.0022C286.132 25.3186 285.156 25.47 284.175 25.4496C276.74 25.4496 274.789 38.5062 274.342 56.3623C274.139 64.4972 274.342 73.1609 274.342 82.15C274.342 89.3087 274.627 96.5895 274.627 101.47C274.627 103.628 273.771 105.697 272.247 107.223C270.723 108.748 268.656 109.605 266.5 109.605C264.345 109.605 262.278 108.748 260.754 107.223C259.23 105.697 258.374 103.628 258.374 101.47C258.374 93.5389 258.374 87.9258 258.13 82.394C258.13 73.2016 257.805 64.2532 258.13 55.9556C258.536 39.6857 260.446 26.2631 266.256 18.0062C261.518 16.9915 256.71 16.3388 251.873 16.0538C245.82 15.734 239.751 16.0064 233.751 16.8673C239.114 25.2869 241.146 38.7095 241.552 54.532C241.552 63.0736 241.552 72.3474 241.552 81.906C241.552 87.6004 241.308 93.4169 241.308 101.47C241.386 102.557 241.24 103.648 240.878 104.675C240.516 105.703 239.946 106.645 239.205 107.442C238.464 108.24 237.566 108.875 236.568 109.31C235.57 109.745 234.494 109.97 233.405 109.97C232.317 109.97 231.241 109.745 230.243 109.31C229.245 108.875 228.347 108.24 227.606 107.442C226.864 106.645 226.295 105.703 225.933 104.675C225.571 103.648 225.425 102.557 225.502 101.47C225.502 96.4268 225.502 88.9833 225.787 81.6619C225.787 72.3068 226.112 63.155 225.787 54.898C225.381 36.5945 223.39 23.0498 215.832 23.2532H215.954ZM149.398 104.44C152.101 109.563 156.22 113.799 161.263 116.642C179.426 127.99 211.362 133.441 244.315 133.563C277.268 133.685 311.399 128.234 333.137 117.903C340.404 114.996 346.731 110.141 351.421 103.87L365.439 112.005C359.136 120.936 350.428 127.89 340.329 132.058C316.315 143.203 279.746 149.141 244.193 149.06C208.64 148.978 173.128 142.552 152.283 129.617C144.687 125.228 138.51 118.748 134.486 110.948L149.317 104.44H149.398Z" fill="white"/>
</svg>
