<?xml version="1.0" encoding="UTF-8"?>
<svg xmlns="http://www.w3.org/2000/svg" xmlns:xlink="http://www.w3.org/1999/xlink" viewBox="0 0 500 500" width="500px" height="500px">
<g id="surface132202850">
<path style=" stroke:none;fill-rule:nonzero;fill:rgb(100%,100%,100%);fill-opacity:1;" d="M 437.539062 64.023438 C 425.363281 63.488281 412.949219 67.128906 402.714844 74.6875 L 375.253906 94.960938 L 250 187.558594 L 125.917969 95.839844 C 124.1875 94.148438 121.90625 93.144531 119.492188 93.007812 L 121.992188 93.007812 L 97.34375 74.765625 C 87.105469 67.1875 74.671875 63.527344 62.480469 64.0625 C 50.289062 64.597656 38.347656 69.316406 29.082031 78.457031 C 17.308594 90.0625 10 106.296875 10 124.101562 L 10 158.4375 C 9.855469 159.414062 9.855469 160.410156 10 161.386719 L 10 395 C 10 414.210938 25.789062 430 45 430 L 120 430 C 125.523438 430 130 425.523438 130 420 L 130 253.730469 L 244.0625 338.046875 C 247.59375 340.652344 252.40625 340.652344 255.9375 338.046875 L 370 253.730469 L 370 420 C 370 425.523438 374.476562 430 380 430 L 455 430 C 474.210938 430 490 414.210938 490 395 L 490 161.191406 C 490.113281 160.328125 490.113281 159.457031 490 158.59375 L 490 124.101562 C 490 106.515625 482.90625 90.359375 471.289062 78.730469 C 470.953125 78.394531 470.839844 78.300781 470.976562 78.4375 C 470.957031 78.417969 470.9375 78.398438 470.917969 78.378906 C 461.652344 69.257812 449.714844 64.558594 437.539062 64.023438 Z M 436.445312 84.003906 C 444.007812 84.300781 451.339844 87.167969 456.894531 92.636719 C 457.082031 92.824219 457.222656 92.964844 457.128906 92.871094 C 465.09375 100.84375 470 111.886719 470 124.101562 L 470 154.960938 L 390 214.082031 L 390 110 C 390.003906 109.660156 389.992188 109.320312 389.960938 108.984375 L 414.589844 90.78125 C 414.597656 90.78125 414.601562 90.78125 414.609375 90.78125 C 421.09375 85.988281 428.882812 83.707031 436.445312 84.003906 Z M 63.574219 84.0625 C 71.144531 83.765625 78.957031 86.035156 85.449219 90.839844 L 110.039062 109.023438 C 110.011719 109.347656 109.996094 109.675781 110 110 L 110 214.082031 L 30 154.960938 L 30 124.101562 C 30 111.746094 35.015625 100.6875 43.125 92.695312 C 48.675781 87.21875 56.003906 84.359375 63.574219 84.0625 Z M 370 123.710938 L 370 228.867188 L 250 317.558594 L 130 228.867188 L 130 123.730469 L 244.0625 208.046875 C 247.59375 210.652344 252.40625 210.652344 255.9375 208.046875 Z M 30 179.824219 L 110 238.964844 L 110 410 L 45 410 C 36.59375 410 30 403.40625 30 395 Z M 470 179.824219 L 470 395 C 470 403.40625 463.40625 410 455 410 L 390 410 L 390 238.964844 Z M 470 179.824219 "/>
</g>
</svg>
