<?xml version="1.0" encoding="UTF-8"?>
<svg xmlns="http://www.w3.org/2000/svg" xmlns:xlink="http://www.w3.org/1999/xlink" viewBox="0 0 500 500" width="500px" height="500px">
<g id="surface131999957">
<path style=" stroke:none;fill-rule:nonzero;fill:rgb(100%,100%,100%);fill-opacity:1;" d="M 90 70 L 120 410 L 260 450 L 400 410 C 410 296.671875 420 183.328125 430 70 Z M 111.835938 90 L 408.164062 90 L 381.289062 394.550781 L 260 429.199219 L 138.710938 394.550781 Z M 185.507812 150 L 175.898438 270 L 305.800781 270 L 301.699219 320 L 260 326.191406 L 218.808594 320 L 216.992188 300 L 178.398438 300 L 182.304688 350 L 259.902344 370 L 337.597656 350 L 347.5 230 L 220.898438 230 L 224.101562 190 L 307.695312 190 L 310 210 L 346.992188 210 L 340 150 Z M 185.507812 150 "/>
</g>
</svg>
