<?xml version="1.0" encoding="UTF-8"?>
<svg xmlns="http://www.w3.org/2000/svg" xmlns:xlink="http://www.w3.org/1999/xlink" viewBox="0 0 500 500" width="500px" height="500px">
<g id="surface141048331">
<path style=" stroke:none;fill-rule:nonzero;fill:rgb(100%,100%,100%);fill-opacity:1;" d="M 437.5 37.5 C 451.289062 37.5 462.5 48.710938 462.5 62.5 L 462.5 437.5 C 462.5 451.289062 451.289062 462.5 437.5 462.5 L 62.5 462.5 C 48.710938 462.5 37.5 451.289062 37.5 437.5 L 37.5 62.5 C 37.5 48.710938 48.710938 37.5 62.5 37.5 L 437.5 37.5 M 437.5 25 L 62.5 25 C 41.789062 25 25 41.789062 25 62.5 L 25 437.5 C 25 458.210938 41.789062 475 62.5 475 L 437.5 475 C 458.210938 475 475 458.210938 475 437.5 L 475 62.5 C 475 41.789062 458.210938 25 437.5 25 Z M 437.5 25 "/>
<path style=" stroke:none;fill-rule:nonzero;fill:rgb(100%,100%,100%);fill-opacity:1;" d="M 87.5 75 L 250 75 L 250 425 L 87.5 425 Z M 87.5 75 "/>
<path style=" stroke:none;fill-rule:nonzero;fill:rgb(100%,100%,100%);fill-opacity:1;" d="M 337.5 75 C 289.175781 75 250 114.175781 250 162.5 C 250 210.824219 289.175781 250 337.5 250 C 385.824219 250 425 210.824219 425 162.5 C 425 114.175781 385.824219 75 337.5 75 Z M 337.5 250 C 289.175781 250 250 289.175781 250 337.5 C 250 385.824219 289.175781 425 337.5 425 C 385.824219 425 425 385.824219 425 337.5 C 425 289.175781 385.824219 250 337.5 250 Z M 337.5 250 "/>
</g>
</svg>
