<?xml version="1.0" encoding="UTF-8"?>
<svg xmlns="http://www.w3.org/2000/svg" xmlns:xlink="http://www.w3.org/1999/xlink" viewBox="0 0 500 500" width="500px" height="500px">
<g id="surface140939716">
<path style=" stroke:none;fill-rule:nonzero;fill:rgb(100%,100%,100%);fill-opacity:1;" d="M 387.5 18.75 C 439.375 18.75 481.25 60.625 481.25 112.5 L 481.25 387.5 C 481.25 439.375 439.375 481.25 387.5 481.25 L 112.5 481.25 C 60.625 481.25 18.75 439.375 18.75 387.5 L 18.75 112.5 C 18.75 60.625 60.625 18.75 112.5 18.75 L 387.5 18.75 M 387.5 12.5 L 112.5 12.5 C 57.5 12.5 12.5 57.5 12.5 112.5 L 12.5 387.5 C 12.5 442.5 57.5 487.5 112.5 487.5 L 387.5 487.5 C 442.5 487.5 487.5 442.5 487.5 387.5 L 487.5 112.5 C 487.5 57.5 442.5 12.5 387.5 12.5 Z M 387.5 12.5 "/>
<path style=" stroke:none;fill-rule:nonzero;fill:rgb(100%,100%,100%);fill-opacity:1;" d="M 343.75 137.5 C 333.394531 137.5 325 145.894531 325 156.25 C 325 166.605469 333.394531 175 343.75 175 C 354.105469 175 362.5 166.605469 362.5 156.25 C 362.5 145.894531 354.105469 137.5 343.75 137.5 Z M 250 337.5 C 201.875 337.5 162.5 298.125 162.5 250 C 162.5 201.875 201.875 162.5 250 162.5 C 298.125 162.5 337.5 201.875 337.5 250 C 337.5 298.125 298.125 337.5 250 337.5 Z M 250 187.5 C 215.625 187.5 187.5 215.625 187.5 250 C 187.5 284.375 215.625 312.5 250 312.5 C 284.375 312.5 312.5 284.375 312.5 250 C 312.5 215.625 284.375 187.5 250 187.5 Z M 250 187.5 "/>
<path style=" stroke:none;fill-rule:nonzero;fill:rgb(100%,100%,100%);fill-opacity:1;" d="M 318.75 425 L 181.25 425 C 122.5 425 75 377.5 75 318.75 L 75 181.25 C 75 122.5 122.5 75 181.25 75 L 318.75 75 C 377.5 75 425 122.5 425 181.25 L 425 318.75 C 425 377.5 377.5 425 318.75 425 Z M 181.25 100 C 136.25 100 100 136.25 100 181.25 L 100 318.75 C 100 363.75 136.25 400 181.25 400 L 318.75 400 C 363.75 400 400 363.75 400 318.75 L 400 181.25 C 400 136.25 363.75 100 318.75 100 Z M 181.25 100 "/>
</g>
</svg>
