<?xml version="1.0" encoding="UTF-8"?>
<svg xmlns="http://www.w3.org/2000/svg" xmlns:xlink="http://www.w3.org/1999/xlink" viewBox="0 0 500 500" width="500px" height="500px">
<g id="surface140924354">
<path style=" stroke:none;fill-rule:nonzero;fill:rgb(100%,100%,100%);fill-opacity:1;" d="M 64.398438 6.398438 C 32.503906 6.398438 6.398438 32.503906 6.398438 64.398438 L 6.398438 435.601562 C 6.398438 467.496094 32.503906 493.601562 64.398438 493.601562 L 435.601562 493.601562 C 467.496094 493.601562 493.601562 467.496094 493.601562 435.601562 L 493.601562 64.398438 C 493.601562 32.503906 467.496094 6.398438 435.601562 6.398438 Z M 64.398438 29.601562 L 435.601562 29.601562 C 454.953125 29.601562 470.398438 45.046875 470.398438 64.398438 L 470.398438 435.601562 C 470.398438 454.953125 454.953125 470.398438 435.601562 470.398438 L 64.398438 470.398438 C 45.046875 470.398438 29.601562 454.953125 29.601562 435.601562 L 29.601562 64.398438 C 29.601562 45.046875 45.046875 29.601562 64.398438 29.601562 Z M 122.398438 87.734375 C 109.695312 87.734375 98.261719 91.535156 89.796875 98.65625 C 81.332031 105.777344 76.136719 116.421875 76.136719 127.816406 C 76.136719 149.472656 94.921875 166.359375 118.820312 168.03125 C 118.835938 168.039062 118.851562 168.042969 118.867188 168.050781 C 120.003906 168.441406 121.195312 168.648438 122.398438 168.664062 C 148.765625 168.664062 168.664062 150.195312 168.664062 127.816406 C 168.660156 127.609375 168.65625 127.40625 168.640625 127.203125 C 167.460938 105.160156 147.808594 87.734375 122.398438 87.734375 Z M 122.398438 110.664062 C 138.550781 110.664062 144.925781 117.875 145.621094 128.109375 C 145.480469 138.042969 139.335938 145.734375 122.398438 145.734375 C 106.328125 145.734375 99.0625 137.507812 99.0625 127.816406 C 99.0625 122.96875 100.832031 119.316406 104.546875 116.191406 C 108.261719 113.066406 114.222656 110.664062 122.398438 110.664062 Z M 87.601562 180.398438 C 81.195312 180.402344 76 185.59375 76 192 L 76 412.398438 C 76 418.804688 81.195312 424 87.601562 424 L 157.199219 424 C 163.605469 424 168.800781 418.804688 168.800781 412.398438 L 168.800781 192 C 168.800781 185.59375 163.605469 180.402344 157.199219 180.398438 Z M 192 180.398438 C 185.59375 180.402344 180.402344 185.59375 180.398438 192 L 180.398438 412.398438 C 180.402344 418.804688 185.59375 424 192 424 L 261.601562 424 C 268.007812 424 273.199219 418.804688 273.199219 412.398438 L 273.199219 296.398438 C 273.199219 286.777344 275.824219 277.203125 280.449219 270.933594 C 285.074219 264.667969 290.90625 260.90625 301.996094 261.101562 C 313.429688 261.296875 319.484375 265.214844 324.0625 271.363281 C 328.640625 277.515625 331.199219 286.734375 331.199219 296.398438 L 331.199219 412.398438 C 331.199219 418.804688 336.394531 424 342.800781 424 L 412.398438 424 C 418.804688 424 424 418.804688 424 412.398438 L 424 287.835938 C 424 253.480469 413.824219 226.269531 396.382812 207.859375 C 378.941406 189.449219 354.679688 180.398438 329.023438 180.398438 C 304.640625 180.398438 286.085938 188.578125 273.199219 196.917969 L 273.199219 192 C 273.199219 185.59375 268.007812 180.402344 261.601562 180.398438 Z M 99.199219 203.601562 L 145.601562 203.601562 L 145.601562 400.800781 L 99.199219 400.800781 Z M 203.601562 203.601562 L 250 203.601562 L 250 221.703125 C 250 226.691406 253.191406 231.117188 257.921875 232.699219 C 262.652344 234.28125 267.863281 232.664062 270.867188 228.679688 C 270.867188 228.679688 289.082031 203.601562 329.023438 203.601562 C 349.363281 203.601562 366.804688 210.359375 379.546875 223.808594 C 392.292969 237.261719 400.800781 257.984375 400.800781 287.835938 L 400.800781 400.800781 L 354.398438 400.800781 L 354.398438 296.398438 C 354.398438 282.867188 351.15625 268.875 342.6875 257.5 C 334.214844 246.125 319.96875 238.203125 302.402344 237.902344 C 284.746094 237.589844 270.269531 245.671875 261.78125 257.183594 C 253.292969 268.691406 250 282.824219 250 296.398438 L 250 400.800781 L 203.601562 400.800781 Z M 203.601562 203.601562 "/>
</g>
</svg>
