<?xml version="1.0" encoding="UTF-8"?>
<svg xmlns="http://www.w3.org/2000/svg" xmlns:xlink="http://www.w3.org/1999/xlink" viewBox="0 0 500 500" width="500px" height="500px">
<g id="surface132154154">
<path style=" stroke:none;fill-rule:nonzero;fill:rgb(100%,100%,100%);fill-opacity:1;" d="M 60 40 C 49.070312 40 40 49.070312 40 60 L 40 440 C 40 450.929688 49.070312 460 60 460 L 440 460 C 450.929688 460 460 450.929688 460 440 L 460 60 C 460 49.070312 450.929688 40 440 40 Z M 60 60 L 440 60 L 440 440 L 60 440 Z M 160 140 L 160 360 L 250 360 L 250 335 L 185 335 L 185 140 Z M 334.882812 197.5 C 320.511719 197.5 311.300781 204.019531 306.191406 218.75 L 304.941406 222.5 L 304.941406 200 L 280 200 C 280.308594 211.519531 280 360 280 360 L 304.941406 360 L 305.234375 267.5 C 305.234375 262.058594 305.550781 257.578125 306.191406 253.417969 C 308.742188 235.496094 319.242188 220.9375 334.882812 220.9375 C 336.8125 220.9375 338.398438 220.929688 340 221.25 L 340 197.8125 C 338.398438 197.492188 336.804688 197.5 334.882812 197.5 Z M 334.882812 197.5 "/>
</g>
</svg>
