<svg width="500" height="500" viewBox="0 0 500 500" fill="none" xmlns="http://www.w3.org/2000/svg">
<path d="M301.6 294.4C297.665 294.4 294.4 297.665 294.4 301.6V438.4C294.4 442.335 297.665 445.6 301.6 445.6H438.4C442.335 445.6 445.6 442.335 445.6 438.4V301.6C445.6 297.665 442.335 294.4 438.4 294.4H301.6ZM301.6 301.6H438.4V438.4H301.6V301.6ZM337.6 330.4V409.6H370V400.6H346.6V330.4H337.6ZM400.558 351.1C395.384 351.1 392.068 353.447 390.229 358.75L389.779 360.1V352H380.8C380.911 356.147 380.8 409.6 380.8 409.6H389.779L389.884 376.3C389.884 374.341 389.998 372.728 390.229 371.23C391.147 364.779 394.927 359.537 400.558 359.537C401.252 359.537 401.823 359.535 402.4 359.65V351.212C401.823 351.097 401.25 351.1 400.558 351.1Z" fill="white"/>
<path d="M61.6 294.4C57.6653 294.4 54.4 297.665 54.4 301.6V438.4C54.4 442.335 57.6653 445.6 61.6 445.6H198.4C202.335 445.6 205.6 442.335 205.6 438.4V301.6C205.6 297.665 202.335 294.4 198.4 294.4H61.6ZM61.6 301.6H198.4V438.4H61.6V301.6ZM106.909 330.4C101.726 330.4 97.5789 330.977 94.007 331.898L94 409.6H102.873V376.588C104.14 376.699 105.292 376.701 106.79 376.701C113.702 376.701 120.959 373.826 125.106 368.066C128.104 364.15 129.824 359.311 129.824 352.169C129.824 345.375 127.868 339.725 124.185 336.039C120.153 332.123 114.047 330.4 106.909 330.4ZM108.316 336.306C118.22 336.306 121.443 343.44 121.443 351.388C121.443 362.332 115.566 368.095 106.93 368.095C105.433 368.095 104.395 367.981 103.359 367.87V336.883C104.51 336.534 106.241 336.306 108.316 336.306ZM154.18 352C145.213 352 138.283 358.367 138.283 367.504C138.283 373.866 142.338 378.723 149.87 383.465C155.725 387.166 157.274 390.174 157.274 394.455C157.274 399.426 153.936 402.548 148.795 402.548C145.086 402.548 141.502 400.929 139.471 399.658L137.2 406.359C139.709 408.325 144.372 409.6 148.555 409.6C158.117 409.6 166 404.165 166 392.943C166 385.196 160.746 379.987 154.061 375.822C148.322 372.125 146.889 369.925 146.889 366.224C146.889 362.527 149.394 359.059 154.293 359.059C157.399 359.059 159.794 360.1 162.062 361.605L164.453 354.89C162.062 353.388 158.724 352 154.18 352Z" fill="white"/>
<path d="M226.608 50.6566C216.673 50.6566 208.109 57.6709 206.152 67.4092L204.456 75.7117H183.183C171.651 75.7117 162.303 85.0591 162.303 96.5917V184.288C162.303 195.821 171.651 205.168 183.183 205.168H316.817C328.349 205.168 337.697 195.821 337.697 184.288V96.5917C337.697 85.0591 328.349 75.7117 316.817 75.7117H295.544L293.848 67.4092C291.891 57.6541 283.327 50.6566 273.392 50.6566H226.608ZM226.608 59.0083H273.392C279.33 59.0083 284.501 63.2326 285.675 69.0559L287.339 77.3598C288.139 81.258 291.565 84.0634 295.544 84.0634H316.817C323.716 84.0634 329.343 89.6912 329.343 96.5917V184.288C329.343 191.189 323.716 196.817 316.817 196.817H183.183C176.284 196.817 170.657 191.189 170.657 184.288V96.5917C170.657 89.6912 176.284 84.0634 183.183 84.0634H204.456C208.435 84.0634 211.861 81.258 212.661 77.3598L214.325 69.0559C215.499 63.2326 220.67 59.0083 226.608 59.0083ZM250 96.5917C226.935 96.5917 208.24 115.286 208.24 138.352C208.24 161.418 226.935 180.112 250 180.112C273.065 180.112 291.76 161.418 291.76 138.352C291.76 115.286 273.065 96.5917 250 96.5917ZM250 104.943C268.416 104.943 283.408 119.935 283.408 138.352C283.408 156.769 268.416 171.76 250 171.76C231.584 171.76 216.592 156.769 216.592 138.352C216.592 119.935 231.584 104.943 250 104.943Z" fill="white"/>
</svg>
