<?xml version="1.0" encoding="UTF-8"?>
<svg xmlns="http://www.w3.org/2000/svg" xmlns:xlink="http://www.w3.org/1999/xlink" viewBox="0 0 500 500" width="500px" height="500px">
<g id="surface132156625">
<path style=" stroke:none;fill-rule:nonzero;fill:rgb(100%,100%,100%);fill-opacity:1;" d="M 60 40 C 49.070312 40 40 49.070312 40 60 L 40 440 C 40 450.929688 49.070312 460 60 460 L 440 460 C 450.929688 460 460 450.929688 460 440 L 460 60 C 460 49.070312 450.929688 40 440 40 Z M 60 60 L 440 60 L 440 440 L 60 440 Z M 185.859375 140 C 171.460938 140 159.941406 141.601562 150.019531 144.160156 L 150 360 L 174.648438 360 L 174.648438 268.300781 C 178.167969 268.609375 181.367188 268.613281 185.527344 268.613281 C 204.726562 268.613281 224.886719 260.628906 236.40625 244.628906 C 244.734375 233.75 249.511719 220.308594 249.511719 200.46875 C 249.511719 181.597656 244.078125 165.902344 233.847656 155.664062 C 222.648438 144.785156 205.6875 140 185.859375 140 Z M 189.765625 156.40625 C 217.277344 156.40625 226.230469 176.222656 226.230469 198.300781 C 226.230469 228.699219 209.90625 244.707031 185.917969 244.707031 C 181.757812 244.707031 178.875 244.390625 175.996094 244.082031 L 175.996094 158.007812 C 179.195312 157.039062 184.003906 156.40625 189.765625 156.40625 Z M 317.167969 200 C 292.257812 200 273.007812 217.6875 273.007812 243.066406 C 273.007812 260.738281 284.273438 274.230469 305.195312 287.402344 C 321.457031 297.683594 325.761719 306.039062 325.761719 317.929688 C 325.761719 331.738281 316.488281 340.410156 302.207031 340.410156 C 291.90625 340.410156 281.949219 335.914062 276.308594 332.382812 L 270 350.996094 C 276.96875 356.457031 289.921875 360 301.542969 360 C 328.101562 360 350 344.902344 350 313.730469 C 350 292.210938 335.40625 277.742188 316.835938 266.171875 C 300.894531 255.902344 296.914062 249.792969 296.914062 239.511719 C 296.914062 229.242188 303.871094 219.609375 317.480469 219.609375 C 326.109375 219.609375 332.761719 222.5 339.0625 226.679688 L 345.703125 208.027344 C 339.0625 203.855469 329.789062 200 317.167969 200 Z M 317.167969 200 "/>
</g>
</svg>
