<svg width="500" height="500" xmlns="http://www.w3.org/2000/svg">
 <g>
  <title>Layer 1</title>
  <line stroke-width="10" stroke-linecap="undefined" stroke-linejoin="undefined" id="svg_1" y2="10" x2="450" y1="10" x1="50" stroke="#ffffff" fill="none"/>
  <line stroke-linecap="undefined" stroke-linejoin="undefined" id="svg_3" y2="495" x2="449" y1="5" x1="449" stroke-width="10" stroke="#ffffff" fill="none"/>
  <line stroke-width="10" stroke-linecap="undefined" stroke-linejoin="undefined" id="svg_8" y2="490" x2="450" y1="490" x1="50" stroke="#ffffff" fill="none"/>
  <line id="svg_31" y2="454" x2="252" y1="53" x1="252" stroke-width="4" stroke="#ffffff" fill="none"/>
  <line id="svg_32" y2="93" x2="185.18094" y1="93" x1="101.5" stroke-width="8" stroke="#ffffff" fill="none"/>
  <line id="svg_33" y2="395.5" x2="224.62202" y1="395.5" x1="159" stroke-width="4" stroke="#ffffff" fill="none"/>
  <line id="svg_35" y2="395.5" x2="144.12202" y1="395.5" x1="78.5" stroke-width="4" stroke="#ffffff" fill="none"/>
  <line id="svg_36" y2="423.5" x2="178.00124" y1="423.5" x1="77.5" stroke-width="4" stroke="#ffffff" fill="none"/>
  <line id="svg_37" y2="423" x2="223.50439" y1="423" x1="195" stroke-width="4" stroke="#ffffff" fill="none"/>
  <line stroke="#ffffff" stroke-linecap="undefined" stroke-linejoin="undefined" id="svg_57" y2="495" x2="48" y1="5" x1="48" stroke-width="10" fill="none"/>
  <rect id="svg_4" height="120" width="140" y="219" x="77" stroke-width="4" stroke="#ffffff" fill="none"/>
  <line id="svg_5" y2="358" x2="189.02222" y1="358" x1="99" stroke-width="4" stroke="#ffffff" fill="none"/>
  <line id="svg_6" y2="96.5" x2="420.62202" y1="96.5" x1="355" stroke-width="4" stroke="#ffffff" fill="none"/>
  <line id="svg_7" y2="96.5" x2="340.12202" y1="96.5" x1="274.5" stroke-width="4" stroke="#ffffff" fill="none"/>
  <line id="svg_9" y2="124.5" x2="374.00124" y1="124.5" x1="273.5" stroke-width="4" stroke="#ffffff" fill="none"/>
  <line id="svg_10" y2="124" x2="419.50439" y1="124" x1="391" stroke-width="4" stroke="#ffffff" fill="none"/>
  <line id="svg_11" y2="153" x2="320.02499" y1="153" x1="275" stroke-width="4" stroke="#ffffff" fill="none"/>
  <line stroke="#ffffff" id="svg_12" y2="152.5" x2="425.03633" y1="152.5" x1="339" stroke-width="4" fill="none"/>
  <line id="svg_19" y2="124.5" x2="219.62202" y1="124.5" x1="154" stroke-width="4" stroke="#ffffff" fill="none"/>
  <line id="svg_20" y2="124.5" x2="139.12202" y1="124.5" x1="73.5" stroke-width="4" stroke="#ffffff" fill="none"/>
  <line id="svg_21" y2="152.5" x2="173.00124" y1="152.5" x1="72.5" stroke-width="4" stroke="#ffffff" fill="none"/>
  <line id="svg_22" y2="152" x2="218.50439" y1="152" x1="190" stroke-width="4" stroke="#ffffff" fill="none"/>
  <line id="svg_23" y2="181" x2="119.02499" y1="181" x1="74" stroke-width="4" stroke="#ffffff" fill="none"/>
  <line stroke="#ffffff" id="svg_24" y2="180.5" x2="224.03633" y1="180.5" x1="138" stroke-width="4" fill="none"/>
  <path id="svg_25" d="m278.60509,211.01453l0,0l0,-0.00861l0,0.00861zm0.00544,-0.00861l31.37685,24.86156l-31.38229,24.85295l11.53729,9.14275l42.91957,-34.00001l-42.91957,-34.00001l-11.53185,9.14275zm55.59862,58.23712l78.39591,0l0,-12.91526l-78.39591,0l0,12.91526zm23.56934,-26.91577l54.82657,0l0,-12.91526l-54.82657,0l0,12.91526zm-23.56934,-39.83534l0,12.92388l78.39591,0l0,-12.92388l-78.39591,0z" stroke-width="4" stroke="#ffffff" fill="none"/>
  <path id="svg_26" d="m275.59746,310.36906l0,113l151.00002,0l0,-113l-151.00002,0zm127.2315,103.30084l-103.46298,0l0,-93.60168l103.46298,0l0,93.60168zm-78.29631,-56.91994c7.97504,0 14.44567,-5.8539 14.44567,-13.06882c0,-7.21998 -6.47063,-13.06882 -14.44567,-13.06882c-7.98063,0 -14.44567,5.8539 -14.44567,13.06882c0,7.21492 6.46504,13.06882 14.44567,13.06882zm72.70931,11.38399l-27.49878,-24.87781l-38.68397,34.99691l-10.721,-9.69916l-15.39082,13.92388l0,26.13258l92.29457,0l0,-40.4764z" stroke-width="4" stroke="#ffffff" fill="none"/>
  <line id="svg_27" y2="303" x2="107" y1="328" x1="87" stroke-width="4" stroke="#ffffff" fill="none"/>
  <line id="svg_28" y2="317" x2="132" y1="304" x1="107" stroke-width="4" stroke="#ffffff" fill="none"/>
  <line id="svg_29" y2="265" x2="169" y1="315" x1="131" stroke-width="4" stroke="#ffffff" fill="none"/>
  <line id="svg_30" y2="257" x2="204" y1="267" x1="168" stroke-width="4" stroke="#ffffff" fill="none"/>
 </g>

</svg>