<?xml version="1.0" encoding="UTF-8"?>
<svg xmlns="http://www.w3.org/2000/svg" xmlns:xlink="http://www.w3.org/1999/xlink" viewBox="0 0 500 500" width="500px" height="500px">
<g id="surface141164173">
<path style=" stroke:none;fill-rule:nonzero;fill:rgb(100%,100%,100%);fill-opacity:1;" d="M 17.1875 27.8125 C 12.539062 28.867188 9.257812 33.046875 9.375 37.8125 L 9.375 394.6875 C 9.375 437.148438 31.445312 461.09375 53.125 471.875 C 74.804688 482.65625 96.25 482.1875 96.25 482.1875 L 403.75 482.1875 L 403.75 481.25 C 408.554688 481.796875 413.75 482.1875 413.75 482.1875 C 413.75 482.1875 432.96875 482.304688 452.1875 471.25 C 470.9375 460.46875 489.414062 437.65625 490.3125 398.125 C 490.429688 397.929688 490.546875 397.695312 490.625 397.5 C 490.625 397.265625 490.625 397.109375 490.625 396.875 C 490.664062 396.367188 490.664062 395.820312 490.625 395.3125 L 490.625 144.375 C 490.625 144.257812 490.625 144.179688 490.625 144.0625 C 490.625 144.0625 490.78125 132.34375 484.6875 120.3125 C 478.59375 108.28125 464.414062 95.3125 442.1875 95.3125 L 442.1875 95 L 347.5 95 L 347.5 115 L 403.125 115 C 401.914062 116.71875 400.898438 118.28125 400 120 C 393.90625 131.914062 393.75 143.75 393.75 143.75 L 393.75 386.25 C 393.710938 389.84375 395.585938 393.203125 398.710938 395.039062 C 401.835938 396.835938 405.664062 396.835938 408.789062 395.039062 C 411.914062 393.203125 413.789062 389.84375 413.75 386.25 L 413.75 143.75 C 413.75 143.476562 414.140625 136.25 417.8125 129.0625 C 421.5625 121.757812 426.835938 115.3125 442.1875 115.3125 C 457.5 115.3125 462.773438 121.914062 466.5625 129.375 C 470.273438 136.71875 470.9375 144.101562 470.9375 144.375 L 470.625 144.375 L 470.625 395.3125 C 470.625 430.898438 456.40625 445.898438 442.1875 454.0625 C 427.96875 462.226562 413.75 462.1875 413.75 462.1875 C 413.75 462.1875 396.835938 461.953125 380 453.4375 C 363.164062 444.921875 346.875 429.960938 346.875 394.6875 L 346.875 37.8125 C 346.875 32.304688 342.382812 27.8125 336.875 27.8125 L 19.375 27.8125 C 18.632812 27.734375 17.929688 27.734375 17.1875 27.8125 Z M 29.375 47.8125 L 326.875 47.8125 L 326.875 394.6875 C 326.875 427.578125 340.820312 449.101562 357.1875 462.1875 L 96.25 462.1875 C 96.132812 462.1875 96.054688 462.1875 95.9375 462.1875 C 95.9375 462.1875 91.640625 462.226562 85.3125 461.25 C 82.148438 460.742188 78.632812 459.921875 74.6875 458.75 C 70.742188 457.578125 66.367188 456.132812 62.1875 454.0625 C 60.078125 453.007812 57.96875 451.914062 55.9375 450.625 C 41.640625 441.640625 29.375 426.132812 29.375 394.6875 Z M 69.375 110 C 63.867188 110.78125 60 115.898438 60.78125 121.40625 C 61.5625 126.914062 66.679688 130.78125 72.1875 130 L 269.375 130 C 272.96875 130.039062 276.328125 128.164062 278.164062 125.039062 C 279.960938 121.914062 279.960938 118.085938 278.164062 114.960938 C 276.328125 111.835938 272.96875 109.960938 269.375 110 L 72.1875 110 C 71.875 110 71.5625 110 71.25 110 C 70.9375 110 70.625 110 70.3125 110 C 70 110 69.6875 110 69.375 110 Z M 69.375 150 C 63.867188 150.78125 60 155.898438 60.78125 161.40625 C 61.5625 166.914062 66.679688 170.78125 72.1875 170 L 269.375 170 C 272.96875 170.039062 276.328125 168.164062 278.164062 165.039062 C 279.960938 161.914062 279.960938 158.085938 278.164062 154.960938 C 276.328125 151.835938 272.96875 149.960938 269.375 150 L 72.1875 150 C 71.875 150 71.5625 150 71.25 150 C 70.9375 150 70.625 150 70.3125 150 C 70 150 69.6875 150 69.375 150 Z M 74.0625 230 C 68.554688 230.78125 64.6875 235.898438 65.46875 241.40625 C 66.25 246.914062 71.367188 250.78125 76.875 250 L 144.6875 250 C 148.28125 250.039062 151.640625 248.164062 153.476562 245.039062 C 155.273438 241.914062 155.273438 238.085938 153.476562 234.960938 C 151.640625 231.835938 148.28125 229.960938 144.6875 230 L 76.875 230 C 76.5625 230 76.25 230 75.9375 230 C 75.625 230 75.3125 230 75 230 C 74.6875 230 74.375 230 74.0625 230 Z M 189.375 230 C 183.867188 230.78125 180 235.898438 180.78125 241.40625 C 181.5625 246.914062 186.679688 250.78125 192.1875 250 L 269.375 250 C 272.96875 250.039062 276.328125 248.164062 278.164062 245.039062 C 279.960938 241.914062 279.960938 238.085938 278.164062 234.960938 C 276.328125 231.835938 272.96875 229.960938 269.375 230 L 192.1875 230 C 191.875 230 191.5625 230 191.25 230 C 190.9375 230 190.625 230 190.3125 230 C 190 230 189.6875 230 189.375 230 Z M 74.0625 270 C 68.554688 270.78125 64.6875 275.898438 65.46875 281.40625 C 66.25 286.914062 71.367188 290.78125 76.875 290 L 144.6875 290 C 148.28125 290.039062 151.640625 288.164062 153.476562 285.039062 C 155.273438 281.914062 155.273438 278.085938 153.476562 274.960938 C 151.640625 271.835938 148.28125 269.960938 144.6875 270 L 76.875 270 C 76.5625 270 76.25 270 75.9375 270 C 75.625 270 75.3125 270 75 270 C 74.6875 270 74.375 270 74.0625 270 Z M 189.375 270 C 183.867188 270.78125 180 275.898438 180.78125 281.40625 C 181.5625 286.914062 186.679688 290.78125 192.1875 290 L 269.375 290 C 272.96875 290.039062 276.328125 288.164062 278.164062 285.039062 C 279.960938 281.914062 279.960938 278.085938 278.164062 274.960938 C 276.328125 271.835938 272.96875 269.960938 269.375 270 L 192.1875 270 C 191.875 270 191.5625 270 191.25 270 C 190.9375 270 190.625 270 190.3125 270 C 190 270 189.6875 270 189.375 270 Z M 189.375 307.8125 C 183.867188 308.59375 180 313.710938 180.78125 319.21875 C 181.5625 324.726562 186.679688 328.59375 192.1875 327.8125 L 269.375 327.8125 C 272.96875 327.851562 276.328125 325.976562 278.164062 322.851562 C 279.960938 319.726562 279.960938 315.898438 278.164062 312.773438 C 276.328125 309.648438 272.96875 307.773438 269.375 307.8125 L 192.1875 307.8125 C 191.5625 307.734375 190.9375 307.734375 190.3125 307.8125 C 190 307.8125 189.6875 307.8125 189.375 307.8125 Z M 74.0625 310 C 68.554688 310.78125 64.6875 315.898438 65.46875 321.40625 C 66.25 326.914062 71.367188 330.78125 76.875 330 L 144.6875 330 C 148.28125 330.039062 151.640625 328.164062 153.476562 325.039062 C 155.273438 321.914062 155.273438 318.085938 153.476562 314.960938 C 151.640625 311.835938 148.28125 309.960938 144.6875 310 L 76.875 310 C 76.5625 310 76.25 310 75.9375 310 C 75.625 310 75.3125 310 75 310 C 74.6875 310 74.375 310 74.0625 310 Z M 189.375 347.8125 C 183.867188 348.59375 180 353.710938 180.78125 359.21875 C 181.5625 364.726562 186.679688 368.59375 192.1875 367.8125 L 269.375 367.8125 C 272.96875 367.851562 276.328125 365.976562 278.164062 362.851562 C 279.960938 359.726562 279.960938 355.898438 278.164062 352.773438 C 276.328125 349.648438 272.96875 347.773438 269.375 347.8125 L 192.1875 347.8125 C 191.5625 347.734375 190.9375 347.734375 190.3125 347.8125 C 190 347.8125 189.6875 347.8125 189.375 347.8125 Z M 74.0625 350 C 68.554688 350.78125 64.6875 355.898438 65.46875 361.40625 C 66.25 366.914062 71.367188 370.78125 76.875 370 L 144.6875 370 C 148.28125 370.039062 151.640625 368.164062 153.476562 365.039062 C 155.273438 361.914062 155.273438 358.085938 153.476562 354.960938 C 151.640625 351.835938 148.28125 349.960938 144.6875 350 L 76.875 350 C 76.5625 350 76.25 350 75.9375 350 C 75.625 350 75.3125 350 75 350 C 74.6875 350 74.375 350 74.0625 350 Z M 189.375 385.3125 C 183.867188 386.09375 180 391.210938 180.78125 396.71875 C 181.5625 402.226562 186.679688 406.09375 192.1875 405.3125 L 269.375 405.3125 C 272.96875 405.351562 276.328125 403.476562 278.164062 400.351562 C 279.960938 397.226562 279.960938 393.398438 278.164062 390.273438 C 276.328125 387.148438 272.96875 385.273438 269.375 385.3125 L 192.1875 385.3125 C 191.875 385.3125 191.5625 385.3125 191.25 385.3125 C 190.9375 385.3125 190.625 385.3125 190.3125 385.3125 C 190 385.3125 189.6875 385.3125 189.375 385.3125 Z M 74.0625 390 C 68.554688 390.78125 64.6875 395.898438 65.46875 401.40625 C 66.25 406.914062 71.367188 410.78125 76.875 410 L 144.6875 410 C 148.28125 410.039062 151.640625 408.164062 153.476562 405.039062 C 155.273438 401.914062 155.273438 398.085938 153.476562 394.960938 C 151.640625 391.835938 148.28125 389.960938 144.6875 390 L 76.875 390 C 76.5625 390 76.25 390 75.9375 390 C 75.625 390 75.3125 390 75 390 C 74.6875 390 74.375 390 74.0625 390 Z M 74.0625 390 "/>
</g>
</svg>
