<?xml version="1.0" encoding="UTF-8"?>
<svg xmlns="http://www.w3.org/2000/svg" xmlns:xlink="http://www.w3.org/1999/xlink" viewBox="0 0 500 500" width="500px" height="500px">
<g id="surface132041734">
<path style=" stroke:none;fill-rule:nonzero;fill:rgb(100%,100%,100%);fill-opacity:1;" d="M 250.019531 10 C 249.007812 10 20.019531 81.367188 20.019531 81.367188 L 20.019531 394.726562 C 20.019531 394.726562 22.433594 395.675781 26.152344 397.226562 C 26.152344 397.226562 248.828125 490.019531 250.019531 490.019531 C 251.210938 490.019531 473.886719 397.226562 473.886719 397.226562 C 477.605469 395.675781 480.019531 394.609375 480.019531 394.609375 L 480.019531 81.328125 C 480.019531 81.328125 251.03125 10 250.019531 10 Z M 250.019531 30.488281 L 436.601562 89.003906 L 346.289062 117.324219 L 250.019531 147.519531 L 153.730469 117.324219 L 63.4375 89.003906 Z M 40.019531 102.617188 L 240.019531 165.332031 L 240.019531 464.980469 L 40.019531 381.347656 Z M 460.019531 102.617188 L 460.019531 381.347656 L 260.019531 464.980469 L 260.019531 165.332031 Z M 435.273438 158.007812 L 414.238281 165.253906 L 395.195312 309.960938 L 371.464844 180.019531 L 352.890625 186.425781 L 328.164062 336.09375 L 307.753906 201.992188 L 284.746094 209.921875 L 315.46875 388.007812 L 337.304688 379.0625 L 362.304688 233.28125 L 386.367188 358.964844 L 407.050781 350.488281 Z M 125.449219 180.996094 C 123.863281 180.972656 122.304688 181.035156 120.800781 181.191406 C 114.820312 181.8125 109.730469 183.714844 105.46875 186.855469 C 101.21875 189.996094 97.914062 194.269531 95.585938 199.648438 C 93.257812 205.019531 92.109375 211.3125 92.109375 218.59375 C 92.109375 225.953125 93.21875 232.867188 95.449219 239.316406 C 97.6875 245.765625 100.785156 251.859375 104.746094 257.597656 C 108.726562 263.347656 113.492188 268.824219 119.023438 274.042969 C 124.582031 279.273438 130.664062 284.339844 137.285156 289.21875 C 143.355469 293.738281 148.335938 297.808594 152.226562 301.386719 C 156.117188 304.96875 159.175781 308.371094 161.40625 311.601562 C 163.636719 314.832031 165.195312 318.058594 166.035156 321.269531 C 166.875 324.480469 167.285156 327.949219 167.285156 331.679688 C 167.285156 339.121094 165.121094 344.355469 160.800781 347.265625 C 156.511719 350.226562 150.101562 350.167969 141.640625 347.109375 C 137.359375 345.570312 133.386719 343.496094 129.707031 340.957031 C 126.027344 338.417969 122.847656 335.359375 120.15625 331.757812 C 117.484375 328.167969 115.386719 324.046875 113.847656 319.375 C 112.308594 314.707031 111.542969 309.511719 111.542969 303.769531 L 87.910156 295.449219 C 87.910156 305.03125 89.449219 313.917969 92.519531 322.109375 C 95.589844 330.328125 99.636719 337.746094 104.6875 344.355469 C 109.757812 350.996094 115.503906 356.675781 121.933594 361.425781 C 128.382812 366.1875 134.960938 369.835938 141.660156 372.304688 C 149.21875 375.09375 156.113281 376.476562 162.324219 376.445312 C 168.554688 376.414062 173.871094 375.046875 178.28125 372.285156 C 182.710938 369.527344 186.117188 365.449219 188.515625 360.058594 C 190.925781 354.667969 192.128906 348.035156 192.128906 340.195312 C 192.128906 332.777344 191.167969 325.789062 189.277344 319.199219 C 187.367188 312.628906 184.464844 306.292969 180.566406 300.234375 C 176.667969 294.195312 171.789062 288.316406 165.9375 282.597656 C 160.109375 276.90625 153.230469 271.199219 145.332031 265.507812 C 135.300781 258.277344 127.886719 251.617188 123.046875 245.488281 C 118.21875 239.386719 115.800781 232.960938 115.800781 226.210938 C 115.800781 222.621094 116.296875 219.460938 117.265625 216.699219 C 118.234375 213.929688 119.765625 211.746094 121.816406 210.15625 C 123.855469 208.554688 126.429688 207.644531 129.53125 207.382812 C 132.640625 207.125 136.355469 207.671875 140.625 209.042969 C 145.175781 210.492188 149.089844 212.507812 152.441406 215.097656 C 155.792969 217.6875 158.582031 220.691406 160.78125 224.140625 C 162.980469 227.601562 164.613281 231.398438 165.683594 235.507812 C 166.761719 239.617188 167.304688 243.917969 167.304688 248.398438 L 192.03125 256.523438 C 192.03125 248.765625 190.867188 241.078125 188.496094 233.457031 C 186.125 225.835938 182.722656 218.738281 178.300781 212.148438 C 173.890625 205.589844 168.507812 199.796875 162.148438 194.804688 C 155.808594 189.824219 148.691406 186.121094 140.820312 183.671875 C 135.316406 181.96875 130.203125 181.070312 125.449219 180.996094 Z M 125.449219 180.996094 "/>
</g>
</svg>
