<?xml version="1.0" encoding="UTF-8"?>
<svg xmlns="http://www.w3.org/2000/svg" xmlns:xlink="http://www.w3.org/1999/xlink" viewBox="0 0 500 500" width="500px" height="500px">
<g id="surface140424870">
<path style=" stroke:none;fill-rule:nonzero;fill:rgb(100%,100%,100%);fill-opacity:1;" d="M 30 50 C 19.070312 50 10 59.070312 10 70 L 10 370 C 10 380.929688 19.070312 390 30 390 L 220 390 L 220 430 L 150 430 C 146.394531 429.949219 143.039062 431.84375 141.222656 434.957031 C 139.402344 438.074219 139.402344 441.925781 141.222656 445.042969 C 143.039062 448.15625 146.394531 450.050781 150 450 L 350 450 C 353.605469 450.050781 356.960938 448.15625 358.777344 445.042969 C 360.597656 441.925781 360.597656 438.074219 358.777344 434.957031 C 356.960938 431.84375 353.605469 429.949219 350 430 L 280 430 L 280 390 L 470 390 C 480.929688 390 490 380.929688 490 370 L 490 70 C 490 59.070312 480.929688 50 470 50 Z M 30 70 L 470 70 L 470 370 L 270 370 C 264.476562 370 260 374.476562 260 380 L 260 430 L 240 430 L 240 380 C 240 374.476562 235.523438 370 230 370 L 30 370 Z M 250 90 C 224.875 90 201.617188 97.625 181.71875 110 L 110 110 C 106.394531 109.949219 103.039062 111.84375 101.222656 114.957031 C 99.402344 118.074219 99.402344 121.925781 101.222656 125.042969 C 103.039062 128.15625 106.394531 130.050781 110 130 L 186.738281 130 L 189.257812 128.320312 C 206.6875 116.742188 227.496094 110 250 110 C 272.503906 110 293.3125 116.742188 310.742188 128.320312 L 313.261719 130 L 390 130 C 393.605469 130.050781 396.960938 128.15625 398.777344 125.042969 C 400.597656 121.925781 400.597656 118.074219 398.777344 114.957031 C 396.960938 111.84375 393.605469 109.949219 390 110 L 318.28125 110 C 298.382812 97.625 275.125 90 250 90 Z M 250 130 C 228.972656 130 210.015625 137.890625 194.707031 150 L 90 150 C 86.394531 149.949219 83.039062 151.84375 81.222656 154.957031 C 79.402344 158.074219 79.402344 161.925781 81.222656 165.042969 C 83.039062 168.15625 86.394531 170.050781 90 170 L 200.976562 170 L 203.828125 167.5 C 216.1875 156.613281 232.25 150 250 150 C 267.75 150 283.8125 156.613281 296.171875 167.5 L 299.023438 170 L 410 170 C 413.605469 170.050781 416.960938 168.15625 418.777344 165.042969 C 420.597656 161.925781 420.597656 158.074219 418.777344 154.957031 C 416.960938 151.84375 413.605469 149.949219 410 150 L 305.292969 150 C 289.984375 137.890625 271.027344 130 250 130 Z M 250 170 C 222.503906 170 200 192.503906 200 220 C 200 247.496094 222.503906 270 250 270 C 277.496094 270 300 247.496094 300 220 C 300 192.503906 277.496094 170 250 170 Z M 250 190 C 266.6875 190 280 203.3125 280 220 C 280 236.6875 266.6875 250 250 250 C 233.3125 250 220 236.6875 220 220 C 220 203.3125 233.3125 190 250 190 Z M 90 260 C 86.394531 259.949219 83.039062 261.84375 81.222656 264.957031 C 79.402344 268.074219 79.402344 271.925781 81.222656 275.042969 C 83.039062 278.15625 86.394531 280.050781 90 280 L 184.472656 280 C 200.914062 297.90625 223.804688 310 250 310 C 276.203125 310 299.101562 297.910156 315.546875 280 L 410 280 C 413.605469 280.050781 416.960938 278.15625 418.777344 275.042969 C 420.597656 271.925781 420.597656 268.074219 418.777344 264.957031 C 416.960938 261.84375 413.605469 259.949219 410 260 L 307.597656 260 L 304.609375 263.730469 C 291.753906 279.742188 272.164062 290 250 290 C 227.835938 290 208.234375 279.757812 195.390625 263.75 L 192.402344 260 Z M 110 300 C 106.394531 299.949219 103.039062 301.84375 101.222656 304.957031 C 99.402344 308.074219 99.402344 311.925781 101.222656 315.042969 C 103.039062 318.15625 106.394531 320.050781 110 320 L 168.300781 320 C 190.671875 338.300781 218.835938 350 250 350 C 281.164062 350 309.328125 338.300781 331.699219 320 L 390 320 C 393.605469 320.050781 396.960938 318.15625 398.777344 315.042969 C 400.597656 311.925781 400.597656 308.074219 398.777344 304.957031 C 396.960938 301.84375 393.605469 299.949219 390 300 L 325.410156 300 L 322.578125 302.5 C 303.167969 319.597656 277.894531 330 250 330 C 222.105469 330 196.832031 319.597656 177.421875 302.5 L 174.589844 300 Z M 110 300 "/>
</g>
</svg>
