<?xml version="1.0" encoding="UTF-8"?>
<svg xmlns="http://www.w3.org/2000/svg" xmlns:xlink="http://www.w3.org/1999/xlink" viewBox="0 0 500 500" width="500px" height="500px">
<g id="surface164995689">
<path style=" stroke:none;fill-rule:nonzero;fill:rgb(100%,100%,100%);fill-opacity:1;" d="M 250 20 C 123.09375 20 20 123.09375 20 250 C 20 376.90625 123.09375 480 250 480 C 376.90625 480 480 376.90625 480 250 C 480 123.09375 376.90625 20 250 20 Z M 250 40 C 366.097656 40 460 133.902344 460 250 C 460 366.097656 366.097656 460 250 460 C 133.902344 460 40 366.097656 40 250 C 40 133.902344 133.902344 40 250 40 Z M 140 170 C 128.949219 170 120 178.949219 120 190 L 120 310 C 120 321.050781 128.949219 330 140 330 L 290 330 C 301.050781 330 310 321.050781 310 310 L 310 190 C 310 178.949219 301.050781 170 290 170 Z M 370 190 L 320 225 L 320 275 L 370 310 Z M 380 190 L 380 310 L 390 310 L 390 190 Z M 105 210 C 102.238281 210 100 212.238281 100 215 L 100 225 C 100 227.761719 102.238281 230 105 230 L 110 230 L 110 210 Z M 105 210 "/>
</g>
</svg>
