<?xml version="1.0" encoding="UTF-8"?>
<svg xmlns="http://www.w3.org/2000/svg" xmlns:xlink="http://www.w3.org/1999/xlink" viewBox="0 0 500 500" width="500px" height="500px">
<g id="surface132114420">
<path style=" stroke:none;fill-rule:nonzero;fill:rgb(100%,100%,100%);fill-opacity:1;" d="M 355 20 C 348.660156 20 342.746094 22.414062 338.320312 26.386719 C 338.257812 26.449219 337.394531 27.296875 337.070312 27.65625 C 336.738281 28.023438 336.292969 28.542969 335.703125 29.199219 C 334.519531 30.511719 332.808594 32.394531 330.664062 34.785156 C 326.371094 39.570312 320.300781 46.367188 313.027344 54.492188 C 298.480469 70.742188 279.171875 92.335938 259.882812 113.90625 L 189.199219 192.96875 C 171.589844 178.667969 151.925781 162.707031 137.890625 151.308594 C 124.570312 140.488281 113.449219 131.457031 105.605469 125.078125 C 101.683594 121.890625 98.582031 119.359375 96.445312 117.617188 C 95.375 116.746094 94.546875 116.066406 93.984375 115.605469 C 93.738281 115.40625 93.558594 115.269531 93.417969 115.15625 L 93.398438 115.136719 L 93.378906 115.136719 C 89.855469 111.976562 85.105469 110 80 110 C 76.109375 110 75.066406 110.789062 73.085938 111.503906 C 71.105469 112.21875 68.960938 113.128906 66.601562 114.179688 C 61.882812 116.285156 56.382812 118.988281 51.054688 121.679688 C 40.398438 127.058594 30.488281 132.402344 30.488281 132.402344 L 30.546875 132.519531 C 24.328125 135.9375 20 142.492188 20 150 L 20 360 C 20 367.835938 24.699219 374.664062 31.367188 377.929688 L 31.328125 378.007812 C 31.328125 378.007812 40.511719 382.691406 50.175781 387.558594 C 55.007812 389.992188 59.96875 392.472656 63.964844 394.453125 C 67.960938 396.433594 70.191406 397.601562 72.5 398.535156 C 74.804688 399.46875 77.367188 400 80 400 C 83.519531 400 86.925781 399.039062 89.84375 397.382812 L 89.863281 397.402344 C 89.867188 397.402344 90.777344 396.804688 90.898438 396.71875 C 91.019531 396.628906 91.082031 396.601562 91.132812 396.5625 C 91.230469 396.488281 91.273438 396.429688 91.328125 396.386719 C 91.4375 396.300781 91.539062 396.230469 91.660156 396.132812 C 91.902344 395.933594 92.226562 395.671875 92.636719 395.332031 C 93.453125 394.65625 94.621094 393.6875 96.09375 392.460938 C 99.042969 390.003906 103.207031 386.519531 108.203125 382.34375 C 118.195312 373.996094 131.46875 362.890625 144.726562 351.796875 C 167.652344 332.613281 184.753906 318.289062 190.527344 313.457031 C 226.738281 352.761719 262.980469 392.097656 290.292969 421.71875 C 304.3125 436.925781 316.050781 449.648438 324.335938 458.613281 C 328.480469 463.097656 331.761719 466.640625 334.042969 469.101562 C 335.183594 470.332031 336.066406 471.296875 336.699219 471.972656 C 337.015625 472.3125 337.28125 472.5625 337.480469 472.773438 C 337.679688 472.984375 337.054688 472.480469 338.359375 473.652344 L 338.378906 473.671875 C 342.785156 477.597656 348.679688 480 355 480 C 358.707031 480 362.210938 479.117188 365.390625 477.636719 L 365.429688 477.714844 C 365.429688 477.714844 389.480469 465.273438 413.886719 452.617188 C 426.089844 446.289062 438.382812 439.90625 447.8125 435 C 452.527344 432.546875 456.53125 430.453125 459.453125 428.925781 C 462.375 427.398438 463.546875 426.820312 464.882812 426.054688 C 473.925781 420.878906 480 411.078125 480 400 L 480 100 C 480 89.71875 474.757812 80.523438 466.777344 75.136719 C 465.421875 74.21875 465.28125 74.226562 464.335938 73.710938 C 463.390625 73.191406 462.160156 72.535156 460.664062 71.738281 C 457.675781 70.144531 453.617188 68.003906 448.847656 65.507812 C 439.304688 60.515625 426.910156 54.070312 414.609375 47.695312 C 390.019531 34.949219 365.855469 22.488281 365.839844 22.480469 L 365.820312 22.480469 C 362.53125 20.902344 358.835938 20 355 20 Z M 355 40 C 356.09375 40 356.980469 40.292969 357.792969 40.839844 C 359.136719 41.75 360 43.191406 360 45 L 360 145.332031 L 247.089844 239.980469 C 241.21875 235.214844 241.1875 235.191406 235.273438 230.390625 C 224.191406 221.394531 215.5625 214.390625 204.746094 205.605469 C 210.804688 198.824219 239.710938 166.453125 274.785156 127.226562 C 294.070312 105.65625 313.390625 84.054688 327.929688 67.8125 C 335.199219 59.691406 341.285156 52.917969 345.566406 48.144531 C 347.707031 45.757812 349.382812 43.871094 350.546875 42.578125 C 351.074219 41.996094 351.460938 41.558594 351.757812 41.230469 C 352.625 40.476562 353.691406 40 355 40 Z M 380 52.324219 C 389.226562 57.085938 392.601562 58.808594 405.410156 65.449219 C 417.699219 71.820312 430.09375 78.273438 439.589844 83.242188 C 444.339844 85.726562 448.359375 87.84375 451.269531 89.394531 C 452.726562 90.167969 453.902344 90.800781 454.726562 91.25 C 455.550781 91.699219 456.523438 92.347656 455.566406 91.699219 L 455.585938 91.699219 L 455.585938 91.71875 C 458.246094 93.511719 460 96.480469 460 100 L 460 400 C 460 403.800781 457.957031 406.964844 454.941406 408.691406 C 455.550781 408.34375 453.070312 409.695312 450.175781 411.210938 C 447.28125 412.726562 443.300781 414.796875 438.59375 417.246094 C 429.175781 422.144531 416.867188 428.539062 404.667969 434.863281 C 392.238281 441.308594 389.105469 442.921875 380 447.636719 Z M 80.273438 130.234375 C 80.351562 130.292969 80.527344 130.449219 80.625 130.527344 C 80.796875 130.671875 81.015625 130.855469 81.308594 131.09375 C 81.894531 131.570312 82.734375 132.25 83.808594 133.125 C 85.957031 134.875 89.042969 137.394531 92.96875 140.585938 C 100.816406 146.96875 111.953125 156.015625 125.273438 166.835938 C 151.917969 188.476562 187.324219 217.222656 222.675781 245.917969 C 291.421875 301.726562 356.261719 354.347656 360 357.382812 L 360 455 C 360 456.929688 358.984375 458.457031 357.480469 459.296875 C 357.464844 459.304688 356.785156 459.664062 356.777344 459.667969 C 356.226562 459.863281 355.640625 460 355 460 C 353.683594 460 352.621094 459.539062 351.738281 458.769531 C 351.609375 458.628906 351.503906 458.507812 351.308594 458.300781 C 350.710938 457.660156 349.824219 456.707031 348.691406 455.488281 C 346.425781 453.046875 343.160156 449.515625 339.023438 445.039062 C 330.746094 436.082031 319.019531 423.367188 305 408.164062 C 276.960938 377.757812 239.742188 337.371094 202.558594 297.011719 C 165.375 256.652344 128.226562 216.320312 100.3125 186.035156 C 86.355469 170.894531 74.710938 158.265625 66.523438 149.394531 C 62.984375 145.5625 60.417969 142.800781 58.261719 140.46875 C 59.171875 140.003906 59.132812 140 60.058594 139.53125 C 65.230469 136.921875 70.554688 134.3125 74.746094 132.441406 C 76.839844 131.507812 78.679688 130.753906 79.902344 130.3125 C 80.058594 130.253906 80.121094 130.273438 80.273438 130.234375 Z M 40 150.175781 C 40.566406 150.785156 41.300781 151.574219 42.304688 152.65625 C 44.515625 155.042969 47.746094 158.519531 51.835938 162.949219 C 56.234375 167.714844 63.777344 175.902344 70 182.65625 L 70 326.40625 L 40.039062 359.941406 C 40.019531 359.972656 40.019531 360 40 360 Z M 360 171.425781 L 360 331.621094 C 349.328125 322.960938 309.617188 290.722656 262.910156 252.8125 Z M 90 204.355469 C 102.679688 218.113281 119.851562 236.761719 135.195312 253.417969 L 90 304.003906 Z M 148.808594 268.183594 C 158.671875 278.890625 166.746094 287.667969 176.953125 298.75 C 170.730469 303.957031 154.445312 317.59375 131.894531 336.464844 C 118.640625 347.554688 105.375 358.648438 95.390625 366.992188 C 90.398438 371.164062 86.234375 374.648438 83.300781 377.089844 C 81.835938 378.3125 80.671875 379.269531 79.882812 379.921875 L 79.863281 379.941406 C 80.179688 380.0625 76.679688 378.429688 72.832031 376.523438 C 68.910156 374.582031 63.988281 372.128906 59.179688 369.707031 C 58.808594 369.519531 58.828125 369.523438 58.457031 369.335938 Z M 80.097656 379.941406 L 84.707031 388.183594 L 79.980469 380.019531 L 80 380 C 80.015625 379.992188 80.097656 379.941406 80.097656 379.941406 Z M 80.097656 379.941406 "/>
</g>
</svg>
