<?xml version="1.0" encoding="UTF-8"?>
<svg xmlns="http://www.w3.org/2000/svg" xmlns:xlink="http://www.w3.org/1999/xlink" viewBox="0 0 500 500" width="500px" height="500px">
<g id="surface132237984">
<path style=" stroke:none;fill-rule:nonzero;fill:rgb(100%,100%,100%);fill-opacity:1;" d="M 319.011719 77.023438 C 314.554688 77.023438 310.4375 78.851562 307.382812 82.199219 L 189.296875 190.148438 C 187.25 192 187.089844 195.171875 188.945312 197.214844 C 189.929688 198.308594 191.296875 198.859375 192.65625 198.859375 C 193.855469 198.859375 195.054688 198.421875 196.015625 197.558594 L 314.316406 89.414062 C 314.445312 89.292969 314.574219 89.164062 314.6875 89.03125 C 316.15625 87.363281 317.855469 87.011719 319.015625 87.011719 C 321.953125 87.011719 324.992188 89.226562 324.992188 92.929688 L 324.992188 171.257812 L 248.378906 229.179688 L 248.40625 229.207031 L 244.199219 232.390625 C 242 234.058594 241.566406 237.191406 243.230469 239.394531 C 244.21875 240.695312 245.710938 241.375 247.226562 241.375 C 248.277344 241.375 249.339844 241.046875 250.246094 240.359375 L 325 183.796875 L 325.019531 314.511719 L 123.507812 162.207031 C 116.03125 156.730469 105.195312 156.9375 97.265625 162.597656 C 93.109375 165.566406 82.820312 175.113281 81.945312 175.945312 C 76.988281 179.917969 74.019531 185.832031 73.800781 192.175781 C 73.574219 198.527344 76.121094 204.625 80.800781 208.945312 L 307.382812 416.101562 C 310.4375 419.449219 314.558594 421.289062 319.015625 421.289062 C 322.285156 421.289062 325.558594 420.203125 328.320312 418.28125 L 399.667969 385.496094 C 411.828125 381.304688 420 369.910156 420 357.148438 L 420 141.152344 C 420 128.390625 411.832031 117 400.128906 112.988281 L 328.320312 80.019531 C 325.566406 78.097656 322.285156 77.023438 319.015625 77.023438 Z M 335 94.082031 L 396.40625 122.257812 C 404.535156 125.0625 410 132.65625 410 141.152344 L 410 357.148438 C 410 365.644531 404.542969 373.242188 395.957031 376.222656 L 335 404.21875 L 335 324.550781 L 334.980469 173.808594 C 334.980469 173.789062 335 173.769531 335 173.75 Z M 392.5 136.875 C 391.121094 136.875 390 137.996094 390 139.375 L 390 264.375 C 390 265.753906 391.121094 266.875 392.5 266.875 C 393.878906 266.875 395 265.753906 395 264.375 L 395 139.375 C 395 137.996094 393.878906 136.875 392.5 136.875 Z M 110.945312 168.117188 C 113.367188 168.117188 115.675781 168.855469 117.539062 170.226562 L 325 327.042969 L 325 405.371094 C 325 409.070312 321.964844 411.289062 319.023438 411.289062 C 317.863281 411.289062 316.167969 410.9375 314.699219 409.269531 C 314.578125 409.132812 314.453125 409.011719 314.316406 408.886719 L 87.570312 201.582031 C 85.046875 199.257812 83.675781 195.960938 83.789062 192.527344 C 83.910156 189.09375 85.515625 185.90625 88.476562 183.515625 C 91.496094 180.699219 100 172.925781 103.078125 170.734375 C 105.445312 169.039062 108.242188 168.117188 110.949219 168.117188 Z M 116.796875 258.515625 C 115.519531 258.457031 114.214844 258.898438 113.195312 259.835938 L 107.804688 264.757812 L 107.753906 264.71875 L 80.792969 289.367188 C 76.125 293.664062 73.574219 299.777344 73.800781 306.125 C 74.019531 312.472656 76.988281 318.390625 81.671875 322.121094 C 82.824219 323.199219 93.121094 332.738281 97.277344 335.714844 C 101.332031 338.597656 106.175781 340.1875 110.949219 340.1875 C 115.511719 340.1875 119.855469 338.785156 123.566406 336.066406 L 164.015625 305.558594 C 166.214844 303.890625 166.644531 300.753906 164.980469 298.554688 C 163.304688 296.34375 160.179688 295.90625 157.980469 297.578125 L 117.597656 328.027344 C 113.523438 331.011719 107.570312 330.769531 103.085938 327.570312 C 100.011719 325.375 91.5 317.589844 88.195312 314.542969 C 85.511719 312.390625 83.914062 309.195312 83.789062 305.761719 C 83.675781 302.332031 85.042969 299.039062 87.550781 296.730469 L 119.941406 267.207031 C 121.976562 265.347656 122.132812 262.179688 120.265625 260.148438 C 119.332031 259.121094 118.074219 258.574219 116.796875 258.515625 Z M 392.5 276.875 C 391.121094 276.875 390 277.996094 390 279.375 L 390 299.375 C 390 300.753906 391.121094 301.875 392.5 301.875 C 393.878906 301.875 395 300.753906 395 299.375 L 395 279.375 C 395 277.996094 393.878906 276.875 392.5 276.875 Z M 392.5 306.875 C 391.121094 306.875 390 307.996094 390 309.375 L 390 314.375 C 390 315.753906 391.121094 316.875 392.5 316.875 C 393.878906 316.875 395 315.753906 395 314.375 L 395 309.375 C 395 307.996094 393.878906 306.875 392.5 306.875 Z M 392.5 326.875 C 391.121094 326.875 390 327.996094 390 329.375 L 390 358.125 C 390 359.503906 391.121094 360.625 392.5 360.625 C 393.878906 360.625 395 359.503906 395 358.125 L 395 329.375 C 395 327.996094 393.878906 326.875 392.5 326.875 Z M 392.5 326.875 "/>
</g>
</svg>
